<svg width="90" height="90" viewBox="0 0 90 90" fill="none" xmlns="http://www.w3.org/2000/svg">
<rect width="90" height="90" rx="16" fill="#181818"/>
<g clip-path="url(#clip0_159_11)">
<mask id="mask0_159_11" style="mask-type:luminance" maskUnits="userSpaceOnUse" x="25" y="19" width="40" height="53">
<path d="M65 19H25V71.9778H65V19Z" fill="white"/>
</mask>
<g mask="url(#mask0_159_11)">
<path d="M39.3111 19.0622C38.6889 19.1244 37.3822 19.3822 36.6 19.5956C34.2178 20.2622 32.0844 21.48 30.28 23.2044C28.7867 24.6267 27.9067 25.7644 27.0533 27.3644C25.64 30.0311 25 32.8844 25 36.5556C25 39.8089 25.4711 42.4222 26.52 45.0711C28.7067 50.5556 33.5778 54.5467 39.64 55.8C40.36 55.9511 42.2622 56.2444 42.5289 56.2444C42.5644 56.2444 42.6 59.7822 42.6 64.1111V71.9778H44.6889H46.7778V64.1111C46.7778 59.5689 46.8133 56.2444 46.8578 56.2444C46.9022 56.2444 47.5067 56.1644 48.2089 56.0756C55.2222 55.1333 59.8444 51.9511 62.8133 46.0311C64.36 42.9556 65 40.1733 65 36.5556C65 30.1111 62.7511 25.16 58.2089 21.6311C56.44 20.2533 54.6178 19.4267 52.5911 19.08C51.7378 18.9378 49.4978 19.0178 48.7333 19.2222C47.3378 19.5956 46.1911 20.3067 45.0444 21.4978C43.9689 22.6178 43.3733 23.6933 43.08 25.0711C42.6533 27.0267 42.6622 26.7956 42.6089 40.7956L42.5556 54.0222L41.4889 53.6578C40.2622 53.24 39.2756 52.76 38.3333 52.1289C37.4 51.5067 35.8178 49.8889 35.1333 48.8667C33.1244 45.8622 32.1111 41.6756 32.1111 36.3867C32.1111 28.4844 34.2622 23.3733 38.4756 21.2311C38.8578 21.0356 39.48 20.7778 39.8444 20.6533L40.5111 20.4311L40.5378 19.72L40.5644 19L40.0933 19.0178C39.8356 19.0178 39.48 19.0444 39.3111 19.0622ZM51.4267 23.6756C52.7156 24.0044 53.9333 24.8311 54.9378 26.0578C56.9556 28.5111 58.1111 31.4444 58.6178 35.3556C58.7689 36.5467 58.7689 40.3511 58.6178 41.4889C58.0044 46.12 56.3511 49.3022 53.4711 51.4178C51.9422 52.5467 49.4978 53.5511 47.4444 53.8889C47.2489 53.9156 47.0178 53.96 46.9378 53.9867C46.7867 54.0311 46.7778 53.4267 46.7778 42.0933C46.7867 29.9867 46.84 27.1956 47.08 26.2622C47.3911 25.0978 48.0667 24.2089 48.9556 23.7911C49.4 23.5778 49.6044 23.5333 50.1911 23.5333C50.5733 23.5333 51.1333 23.5956 51.4267 23.6756Z" fill="url(#paint0_linear_159_11)"/>
</g>
</g>
<defs>
<linearGradient id="paint0_linear_159_11" x1="22.2093" y1="30.07" x2="81.8294" y2="41.3619" gradientUnits="userSpaceOnUse">
<stop stop-color="#007BFF"/>
<stop offset="0.295" stop-color="#007BFF"/>
<stop offset="0.665" stop-color="#52DF52"/>
<stop offset="1" stop-color="#52DF52"/>
</linearGradient>
<clipPath id="clip0_159_11">
<rect width="40" height="52.9778" fill="white" transform="translate(25 19)"/>
</clipPath>
</defs>
</svg>
