<svg width="880" height="926" viewBox="0 0 880 926" fill="none" xmlns="http://www.w3.org/2000/svg">
<path d="M816.949 723.057L761.949 668.057C751.207 657.314 733.805 657.314 723.062 668.057C712.32 678.799 712.32 696.201 723.062 706.943L731.119 715H677.38C648.601 737.632 616.597 756.232 582.08 770H731.119L723.062 778.057C712.32 788.799 712.32 806.201 723.062 816.943C728.434 822.314 735.47 825 742.506 825C749.542 825 756.578 822.314 761.949 816.943L816.949 761.943C827.691 751.201 827.691 733.799 816.949 723.057Z" fill="white"/>
<path d="M797.5 412.5C797.5 215.367 637.133 55 440 55C242.867 55 82.5 215.367 82.5 412.5C82.5 522.98 132.903 621.872 211.885 687.5H314.716C210.339 639.749 137.5 534.583 137.5 412.5C137.5 245.701 273.201 110 440 110C606.799 110 742.5 245.701 742.5 412.5C742.5 579.299 606.799 715 440 715H82.5C67.3116 715 55 727.312 55 742.5C55 757.688 67.3116 770 82.5 770H440C637.133 770 797.5 609.633 797.5 412.5Z" fill="white"/>
<path d="M678.099 381.866L626.219 364.573C621.652 346.842 614.665 330.124 605.551 314.746L630.023 265.8C632.67 260.506 631.632 254.113 627.446 249.929L602.571 225.054C598.387 220.868 591.994 219.83 586.7 222.477L537.754 246.949C522.376 237.835 505.658 230.848 487.927 226.281L470.634 174.401C468.762 168.787 463.509 165 457.59 165H422.41C416.491 165 411.238 168.787 409.366 174.401L392.073 226.281C374.342 230.848 357.624 237.835 342.246 246.949L293.3 222.477C288.006 219.83 281.613 220.868 277.429 225.054L252.554 249.929C248.368 254.113 247.33 260.506 249.977 265.8L274.449 314.746C265.335 330.124 258.348 346.842 253.781 364.573L201.901 381.866C196.287 383.738 192.5 388.991 192.5 394.91V430.09C192.5 436.009 196.287 441.262 201.901 443.134L253.781 460.427C258.348 478.158 265.335 494.876 274.449 510.254L249.977 559.2C247.33 564.494 248.368 570.887 252.554 575.071L277.429 599.946C281.613 604.132 288.006 605.17 293.3 602.523L342.246 578.051C357.624 587.165 374.342 594.152 392.073 598.719L409.366 650.597C411.238 656.212 416.491 660 422.41 660H457.59C463.509 660 468.762 656.212 470.634 650.597L487.927 598.719C505.658 594.152 522.376 587.165 537.754 578.051L586.7 602.523C591.994 605.17 598.387 604.132 602.571 599.946L627.446 575.071C631.632 570.887 632.67 564.494 630.023 559.2L605.551 510.254C614.665 494.876 621.652 478.158 626.219 460.427L678.099 443.134C683.713 441.262 687.5 436.009 687.5 430.09V394.91C687.5 388.991 683.713 383.738 678.099 381.866ZM440 522.5C379.248 522.5 330 473.252 330 412.5C330 351.748 379.248 302.5 440 302.5C500.752 302.5 550 351.748 550 412.5C550 473.252 500.752 522.5 440 522.5Z" fill="white"/>
<path d="M440 495C485.563 495 522.5 458.063 522.5 412.5C522.5 366.937 485.563 330 440 330C394.437 330 357.5 366.937 357.5 412.5C357.5 458.063 394.437 495 440 495Z" fill="white"/>
</svg>
