<svg width="947" height="947" viewBox="0 0 947 947" fill="none" xmlns="http://www.w3.org/2000/svg">
<path d="M247.847 39.9509C237.119 46.2396 235.639 55.1177 235.639 112.826V167.574H216.403C200.867 167.574 195.688 168.684 188.659 173.493C173.123 184.22 169.053 191.989 167.944 214.924L167.204 235.64H112.085C39.2108 235.64 36.9913 236.749 36.9913 274.851C36.9913 294.827 37.3612 296.677 44.3897 303.705L51.7882 311.104H109.496H167.204V339.588V368.442L108.016 369.181L48.8288 369.921L42.5401 377.32C36.9913 383.978 36.2515 387.308 36.2515 406.913C36.2515 427.999 36.6214 429.479 43.6499 436.877L51.0483 444.276H108.756H166.464V473.129V501.983H109.866H52.1581L44.7597 509.382C37.3612 516.78 37.3612 518.26 37.3612 539.345C37.3612 558.951 38.1011 562.281 43.6499 568.939L49.9386 576.338L109.126 577.077L168.314 577.817V606.671V635.155H109.866H52.1581L44.7597 642.554C37.7312 649.952 37.3612 651.432 37.3612 671.408C37.3612 709.51 39.5808 710.619 113.195 710.619H167.944V729.855C167.944 745.392 169.053 750.571 173.862 757.599C184.22 773.136 191.989 777.205 215.294 778.315L236.009 779.055V833.803C236.009 907.048 237.489 908.897 276.701 908.897C294.827 908.897 297.046 908.527 304.075 901.499L311.473 894.101V836.393V778.685H339.957H368.811L369.551 837.872L370.291 897.06L377.689 903.349C384.348 908.897 387.677 909.637 407.283 909.637C428.369 909.637 429.848 909.267 437.247 902.239L444.645 894.84V837.133V779.425H473.499H502.353V837.133V894.84L509.751 902.239C517.15 909.637 518.63 909.637 539.715 909.637C559.321 909.637 562.65 908.897 569.309 903.349L576.707 897.06L577.447 837.872L578.187 778.685H607.041H635.525V836.393V894.101L642.923 901.499C649.952 908.527 652.171 908.897 670.297 908.897C709.879 908.897 710.989 906.678 710.989 833.803V779.055L731.705 778.315C753.9 777.205 761.668 773.506 772.396 759.079C776.465 753.53 778.315 746.872 779.055 730.965L779.794 710.249H834.543C907.787 710.249 909.637 708.77 909.637 669.558C909.637 651.432 909.267 649.212 902.238 642.184L894.84 634.785H837.132H779.424V606.301V577.447L838.612 576.708L897.799 575.968L904.088 568.569C909.637 561.911 910.377 558.581 910.377 538.976C910.377 517.89 910.007 516.41 902.978 509.012L895.58 501.613H837.872H780.164V473.499V444.645H837.872H895.58L902.978 437.247C910.377 429.849 910.377 428.369 910.377 407.283C910.377 387.677 909.637 384.348 904.088 377.69L897.799 370.291L838.612 369.551L779.424 368.811V339.958V311.474H837.132H894.84L902.238 304.075C909.267 296.677 909.637 295.197 909.637 275.221C909.637 237.119 907.417 236.01 833.803 236.01H779.055V216.774C779.055 201.237 777.945 196.058 773.136 188.66C762.778 173.123 752.05 167.944 730.595 167.944H711.359V112.826C711.359 39.2111 710.249 36.9916 672.147 36.9916C652.171 36.9916 650.322 37.3615 643.293 44.39L635.895 51.7884V109.496V167.204H607.411H578.557L577.817 108.017L577.077 48.8291L569.679 42.5404C563.02 36.9916 559.691 36.2517 540.085 36.2517C518.999 36.2517 517.52 36.6216 510.121 43.6501L502.723 51.0486V108.756V166.464H473.499H444.645V109.866V52.1584L437.247 44.7599C429.848 37.3615 428.369 37.3615 407.283 37.3615C387.677 37.3615 384.348 38.1013 377.689 43.6501L370.291 49.9388L369.551 109.126L368.811 168.314H339.957H311.473V109.866V52.1584L304.075 44.7599C296.676 37.7314 295.197 37.3615 274.481 37.3615C262.274 36.9916 250.436 38.4712 247.847 39.9509ZM454.633 339.588C456.113 343.657 476.458 399.145 499.764 463.142C523.439 527.138 543.044 581.517 543.784 583.736C544.894 588.175 541.565 588.545 504.203 588.545H463.511L457.962 570.419L452.044 551.923L411.352 552.663L370.661 553.403L364.742 570.419L358.823 587.435L318.872 588.175C281.51 588.545 279.29 588.545 281.14 584.106C282.619 580.037 369.181 344.767 372.51 335.518C373.25 333.299 383.608 332.559 412.832 332.559H451.674L454.633 339.588ZM640.334 459.812L639.594 587.435H600.382H561.171L560.431 459.812L560.061 332.559H600.752H641.444L640.334 459.812Z" fill="white"/>
<path d="M400.995 456.113C395.076 475.349 389.897 492.366 389.897 493.846C389.897 496.065 397.296 496.805 413.572 496.805C431.699 496.805 437.247 496.065 436.138 493.476C435.768 491.996 430.589 474.61 425.04 455.744C419.121 436.878 413.942 421.341 413.203 421.341C412.463 421.341 406.914 436.878 400.995 456.113Z" fill="white"/>
</svg>
