<svg width="663" height="1137" viewBox="0 0 663 1137" fill="none" xmlns="http://www.w3.org/2000/svg">
<g clip-path="url(#clip0_22_69884)">
<path fill-rule="evenodd" clip-rule="evenodd" d="M117.697 0H544.535C576.92 0 606.622 13.3242 627.811 34.4209C649.278 55.8877 662.232 85.2195 662.232 117.697V1019.21C662.232 1051.6 648.908 1081.3 627.811 1102.49C606.344 1123.95 577.013 1136.91 544.535 1136.91H117.697C85.312 1136.91 55.6101 1123.58 34.4209 1102.49C12.9541 1081.02 0 1051.69 0 1019.21V117.697C0 85.312 13.3242 55.6101 34.4209 34.4209C55.9802 12.9541 85.312 0 117.697 0ZM98.8213 252.605H563.503V479.302H98.8213V252.605ZM351.611 840.166H563.596V884.302H351.611V840.166ZM98.8213 539.168H295.354V629.384H98.8213V539.168ZM351.611 538.983H563.596V629.477H351.611V538.983ZM348.465 689.621H560.45V780.114H348.465V689.621ZM101.875 689.713H298.407V779.929H101.875V689.713ZM98.8213 840.259H295.354V884.302H98.8213V840.259ZM330.977 992.284C357.626 992.284 379.463 1013.75 379.463 1040.77C379.463 1067.42 357.996 1089.25 330.977 1089.25C304.329 1089.25 282.492 1067.79 282.492 1040.77C282.584 1014.12 304.051 992.284 330.977 992.284ZM33.4031 955.458H628.552V182.56H33.4031V955.458Z" fill="white"/>
</g>
<defs>
<clipPath id="clip0_22_69884">
<rect width="662.325" height="1137" fill="white"/>
</clipPath>
</defs>
</svg>
