<svg width="1278" height="1278" viewBox="0 0 1278 1278" fill="none" xmlns="http://www.w3.org/2000/svg">
<g clip-path="url(#clip0_22_69891)">
<path d="M749.348 85.9072C825.063 100.884 895.266 131.045 956.732 173.062C999.27 146.75 1055.85 152.054 1092.77 188.975C1129.9 226.104 1135.1 283.203 1108.16 325.948C1149.56 387.831 1178.99 458.345 1193.24 534.164C1241.91 545.709 1278.1 589.39 1278.1 641.6C1278.1 694.122 1241.39 738.116 1192.2 749.244C1177.22 824.959 1147.06 895.162 1105.04 956.628C1131.35 999.166 1126.05 1055.74 1089.13 1092.67C1052 1129.79 994.901 1134.99 952.156 1108.06C890.273 1149.45 819.759 1178.88 743.94 1193.13C732.395 1241.81 688.714 1278 636.504 1278C583.982 1278 539.988 1241.29 528.86 1192.09C453.145 1177.12 382.942 1146.96 321.476 1104.94C278.938 1131.25 222.36 1125.84 185.439 1089.02C148.31 1051.9 143.109 994.797 170.046 952.052C128.653 890.169 99.2197 819.655 84.9712 743.836C36.1934 732.187 0 688.506 0 636.4C0 583.878 36.7134 539.884 85.9072 528.756C100.884 453.041 131.045 382.838 173.062 321.372C146.75 278.834 152.158 222.256 188.975 185.335C226.104 148.206 283.203 143.005 325.948 169.942C387.831 128.549 458.345 99.1157 534.164 84.8672C545.709 36.1934 589.494 0 641.6 0C694.226 0 738.22 36.7134 749.348 85.9072ZM1052.94 370.67C1013.73 385.126 967.964 376.702 936.555 345.189C904.834 313.468 896.41 267.186 911.49 227.769C860.84 194.175 803.534 169.63 742.068 156.526C724.595 194.487 686.218 220.904 641.704 220.904C596.774 220.904 558.085 194.071 540.924 155.59C479.25 168.07 421.736 191.991 370.774 225.064C385.23 264.274 376.806 310.036 345.293 341.445C313.572 373.166 267.29 381.59 227.873 366.51C194.279 417.16 169.734 474.466 156.63 535.932C194.591 553.405 221.008 591.782 221.008 636.296C221.008 681.226 194.175 719.915 155.694 737.076C168.174 798.75 192.095 856.264 225.272 907.226C264.482 892.77 310.244 901.194 341.653 932.707C373.374 964.428 381.798 1010.71 366.718 1050.13C417.368 1083.72 474.674 1108.27 536.14 1121.37C553.613 1083.41 591.99 1056.99 636.504 1056.99C681.434 1056.99 720.123 1083.82 737.284 1122.31C798.958 1109.83 856.472 1085.9 907.434 1052.73C892.978 1013.52 901.402 967.756 932.915 936.347C964.636 904.626 1010.92 896.202 1050.34 911.282C1083.93 860.632 1108.47 803.326 1121.58 741.86C1083.62 724.387 1057.2 686.01 1057.2 641.496C1057.2 596.566 1084.03 557.877 1122.51 540.716C1110.03 479.146 1086.11 421.632 1052.94 370.67ZM882.161 512.947L883.409 784.397C883.513 797.502 875.297 808.734 863.544 813.415V813.519L646.176 901.402C642.224 902.962 638.064 903.794 633.8 903.794C633.384 903.794 632.864 903.69 632.448 903.794C630.576 904.002 628.704 904.314 626.832 904.314C622.671 904.314 618.407 903.482 614.559 901.818L414.248 817.575V817.471C402.703 812.583 394.591 801.038 394.591 787.622L395.735 519.292C395.631 516.691 395.735 513.987 396.255 511.387C396.359 507.643 397.087 503.899 398.543 500.467C401.871 492.354 408.423 486.322 416.12 483.202L625.271 399.063C633.8 395.631 642.952 396.047 650.752 399.375L859.488 474.882C871.969 479.354 879.873 490.586 880.393 502.755C881.537 505.979 882.161 509.515 882.161 512.947ZM599.479 849.4L601.039 610.191L433.592 537.804L430.056 777.949L599.479 849.4ZM846.384 537.804L659.385 610.191L660.841 849.192L847.528 779.405L846.384 537.804Z" fill="white"/>
</g>
<defs>
<clipPath id="clip0_22_69891">
<rect width="1278" height="1278" fill="white"/>
</clipPath>
</defs>
</svg>
