<svg width="1008" height="611" viewBox="0 0 1008 611" fill="none" xmlns="http://www.w3.org/2000/svg">
<g clip-path="url(#clip0_22_70546)">
<path fill-rule="evenodd" clip-rule="evenodd" d="M239.251 366.827C241.137 351.413 195.55 293.035 187.186 264.584C169.312 236.215 162.999 190.792 182.513 161.111C190.22 149.222 186.858 138.891 186.858 122.411C186.858 -40.7522 472.844 -40.8342 472.844 122.411C472.844 143.073 468.171 147.91 479.322 164.226C498.016 191.284 488.423 239.494 472.599 264.666C462.432 294.265 414.631 350.101 418.156 366.909C421.19 450.622 239.005 447.835 239.497 366.909L239.251 366.827ZM343.544 511.706H353.547C357.896 511.706 362.067 509.978 365.142 506.903C368.218 503.828 369.945 499.657 369.945 495.308V468.579C369.945 464.229 368.218 460.058 365.142 456.983C362.067 453.908 357.896 452.18 353.547 452.18H294.021C289.672 452.18 285.501 453.908 282.426 456.983C279.351 460.058 277.623 464.229 277.623 468.579V495.226C277.623 499.575 279.351 503.746 282.426 506.821C285.501 509.896 289.672 511.624 294.021 511.624H304.188L284.674 610.998H362.32L343.544 511.706ZM0 610.998C7.70719 510.804 -11.8888 515.15 71.9065 483.747C112.997 467.96 152.366 448.014 189.4 424.221L261.389 610.998H0ZM461.284 415.694C495.002 438.349 531.485 456.59 569.84 469.972C648.142 496.046 647.732 499.653 647.732 610.998H386.999L461.284 415.694ZM750.139 531.138H758.339C761.847 531.138 765.213 529.75 767.702 527.277C770.191 524.803 771.6 521.446 771.621 517.937V496.538C771.6 493.021 770.193 489.655 767.707 487.169C765.221 484.683 761.855 483.276 758.339 483.255H710.292C708.54 483.244 706.804 483.58 705.183 484.242C703.562 484.905 702.088 485.882 700.846 487.116C699.604 488.351 698.619 489.819 697.946 491.436C697.273 493.052 696.927 494.786 696.927 496.538V517.937C696.949 521.432 698.346 524.777 700.817 527.248C703.288 529.719 706.633 531.116 710.128 531.138H718.327L702.666 610.998H765.062L749.975 531.138H750.139ZM666.344 414.71C667.82 402.329 631.17 355.184 624.447 332.719C610.098 309.925 605.015 273.603 620.675 249.579C626.906 239.986 624.201 231.705 624.201 218.423C624.201 87.2364 853.777 87.2364 853.777 218.423C853.777 234.821 850.005 238.921 858.942 252.039C873.947 273.849 866.239 312.549 853.531 332.801C845.331 356.578 806.959 401.428 809.583 414.792C812.043 482.107 665.606 479.893 666.016 414.792L666.344 414.71ZM844.512 454.066C876.21 472.326 909.878 486.932 944.869 497.603C1007.84 518.593 1007.59 521.463 1007.18 610.998H785.068L844.512 454.066Z" fill="white"/>
</g>
<defs>
<clipPath id="clip0_22_70546">
<rect width="1007.51" height="611" fill="white"/>
</clipPath>
</defs>
</svg>
