<svg width="656" height="661" viewBox="0 0 656 661" fill="none" xmlns="http://www.w3.org/2000/svg">
<g clip-path="url(#clip0_22_70544)">
<path fill-rule="evenodd" clip-rule="evenodd" d="M226.896 391.342C218.638 378.119 211.616 364.163 205.917 349.653C160.785 324.263 153.577 211.353 181.388 219.906C181.388 215.656 180.635 203.768 180.635 195.591C180.635 12.321 475.094 12.2134 475.094 195.591C475.094 203.983 474.233 215.656 474.341 219.906C502.098 211.191 494.889 324.101 449.811 349.653C438.354 381.39 417.913 402.692 419.58 416.624C419.58 464.445 367.025 481.767 328.133 482.197C324.583 482.197 320.979 482.197 317.375 481.659C325.912 479.39 334.094 475.951 341.689 471.438C358.418 461.218 369.715 446.102 369.715 427.974C369.715 409.846 358.472 394.623 341.743 384.456C326.408 375.455 308.959 370.685 291.178 370.632C277.365 370.374 263.638 372.842 250.78 377.894C242.802 381.131 235.503 385.839 229.263 391.772H227.273L226.896 391.342ZM540.236 170.04H538.246C519.795 91.8798 472.35 37.6571 415.815 15.2257C382.718 2.73064 347.244 -2.19531 311.995 0.809398C277.277 3.5195 243.499 13.411 212.802 29.8573C187.16 44.0813 165.285 64.2221 148.996 88.6045C132.707 112.987 122.474 140.906 119.15 170.04H115.438C97.6868 170.04 79.7202 184.618 79.7202 202.315V318.883C79.7202 336.635 97.6868 351.159 115.438 351.159H125.928C137.386 397.689 183.808 440.293 231.307 440.293H240.613C248.736 452.235 264.497 460.68 290.747 460.68C316.998 460.68 344.97 445.887 344.97 427.705C344.97 409.523 317.375 394.784 290.747 394.784C264.12 394.784 247.983 403.445 240.129 415.925H231.307C190.748 415.925 150.618 372.891 147.767 334.053V172.138C150.796 147.777 159.512 124.47 173.211 104.099C186.91 83.728 205.208 66.8646 226.627 54.8707C253.738 40.4551 283.533 31.793 314.147 29.4269C345.054 26.7672 376.165 31.0306 405.218 41.9067C452.071 60.4113 491.608 106.458 508.66 170.04H507.961V351.159H540.236C557.988 351.159 575.954 336.635 575.954 318.883V202.369C575.954 184.564 557.988 170.094 540.236 170.094V170.04ZM347.445 561.809H357.45C361.73 561.809 365.835 560.109 368.861 557.083C371.887 554.056 373.588 549.952 373.588 545.672V518.776C373.588 514.496 371.887 510.391 368.861 507.365C365.835 504.338 361.73 502.638 357.45 502.638H298.278C294.02 502.707 289.955 504.43 286.944 507.441C283.932 510.453 282.21 514.517 282.141 518.776V545.672C282.223 549.926 283.95 553.983 286.959 556.991C289.967 560 294.024 561.727 298.278 561.809H308.23L288.65 660.949H366.164L347.445 561.756V561.809ZM0 661.003C7.6923 561.272 -11.8881 565.306 71.6514 534.053C114.342 518.402 155.387 498.582 194.19 474.881L265.573 661.164L0 661.003ZM464.766 466.221C500.2 488.726 538.265 506.793 578.106 520.013C656.105 545.941 656.105 549.599 655.352 660.787H390.801L464.766 466.221Z" fill="white"/>
</g>
<defs>
<clipPath id="clip0_22_70544">
<rect width="655.459" height="661" fill="white"/>
</clipPath>
</defs>
</svg>
