<svg width="798" height="798" viewBox="0 0 798 798" fill="none" xmlns="http://www.w3.org/2000/svg">
<path d="M139.318 148.628C115.378 159.268 99.75 183.208 99.75 209.476V365.751C99.75 550.288 227.43 722.856 399 764.751C570.57 722.856 698.25 550.288 698.25 365.751V209.476C698.25 183.208 682.622 159.268 658.682 148.628L425.933 45.221C408.643 37.5735 389.025 37.5735 372.067 45.221L139.318 148.628ZM399 232.751C417.288 232.751 432.25 247.713 432.25 266.001C432.25 284.288 417.288 299.251 399 299.251C380.712 299.251 365.75 284.288 365.75 266.001C365.75 247.713 380.712 232.751 399 232.751ZM399 365.751C417.288 365.751 432.25 380.713 432.25 399.001V532.001C432.25 550.288 417.288 565.251 399 565.251C380.712 565.251 365.75 550.288 365.75 532.001V399.001C365.75 380.713 380.712 365.751 399 365.751Z" fill="white"/>
</svg>
