<svg width="646" height="745" viewBox="0 0 646 745" fill="none" xmlns="http://www.w3.org/2000/svg">
<g clip-path="url(#clip0_22_70602)">
<path fill-rule="evenodd" clip-rule="evenodd" d="M163.94 0H474.174C538.501 0 583.912 53.0497 591.066 116.891L633.627 494.181C636.355 518.25 639.447 542.441 641.812 566.51C643.449 582.941 644.6 598.098 645.085 612.164C645.934 635.505 644.964 655.513 641.266 672.792C641.205 673.095 641.084 673.459 641.023 673.762C637.628 713.473 604.04 745 563.419 745H79.6057C57.6583 745 37.8329 735.845 23.5852 721.113C0.728361 697.407 1.94093 675.884 1.0315 647.57C0.546475 633.444 0.0614491 618.287 -0.0598074 603.069C-0.30232 567.905 2.54721 544.866 6.12427 510.429L46.9877 116.891C53.6568 52.9285 99.6737 0 163.94 0ZM172.791 164.909L172.246 270.038L277.375 270.584L289.743 270.645L281.013 261.793L250.517 230.994C252.578 229.054 254.64 227.174 256.883 225.355C259.793 222.991 262.824 220.808 265.977 218.747C282.165 208.319 301.445 202.316 322.119 202.377C350.432 202.498 376.078 214.139 394.57 232.813C413.061 251.486 424.459 277.192 424.277 305.506V305.627C424.156 334.001 412.515 359.586 393.842 378.078C375.168 396.569 349.462 407.968 321.149 407.786H320.906C311.024 407.725 301.141 406.27 291.683 403.36C286.469 401.783 281.316 399.722 276.405 397.358C251.366 385.111 232.025 362.86 223.537 335.881L222.385 332.303L159.271 332.061L160.484 338.245V338.427C162.545 348.734 165.758 358.859 169.76 368.559C173.761 378.078 178.733 387.293 184.432 395.903C213.715 440.04 263.794 469.263 320.724 469.505C366.135 469.748 407.362 451.499 437.191 421.912C467.02 392.325 485.694 351.341 485.876 305.991V305.87C486.118 260.459 467.869 219.292 438.282 189.403C408.757 159.574 367.772 140.961 322.422 140.718H322.24C298.898 140.597 276.708 145.387 256.58 154.056C253.306 155.451 250.092 156.967 246.94 158.604C232.207 166.121 218.808 175.761 207.107 187.159L181.461 161.332L172.731 152.48L172.791 164.909ZM624.169 620.894C624.169 616.408 624.047 611.739 623.866 606.949C623.077 586.033 620.774 567.784 617.56 540.137C612.286 538.076 606.587 536.984 600.645 536.984H45.2295C37.7722 536.984 30.7393 538.743 24.4946 541.835C21.0995 565.48 21.0995 588.943 21.7664 616.771C35.8927 596.643 59.2346 589.307 85.5473 589.307H557.66C584.882 589.307 610.042 597.734 624.169 620.894ZM90.7007 653.936H210.381V696.437H90.7007V653.936Z" fill="white"/>
</g>
<defs>
<clipPath id="clip0_22_70602">
<rect width="645.448" height="745" fill="white"/>
</clipPath>
</defs>
</svg>
