<svg width="940" height="910" viewBox="0 0 940 910" fill="none" xmlns="http://www.w3.org/2000/svg">
<g clip-path="url(#clip0_22_70600)">
<path d="M671.457 302.947C669.52 300.872 667.723 298.67 666.078 296.356C662.131 290.922 658.404 285.249 654.824 279.557L636.96 251.119C630.167 241.241 626.605 232.208 626.605 225.067C626.605 217.906 630.663 208.58 638.741 206.505C638.098 195.802 637.676 184.933 637.676 174.193C637.676 167.822 637.786 161.396 638.025 155.081C638.374 151.097 639.108 147.131 640.191 143.276C645.13 127.101 655.98 113.35 670.521 104.721C675.68 101.49 681.243 98.8275 687.008 96.8631C697.381 92.9342 692.369 77.09 703.807 76.8514C730.52 76.1537 774.454 99.0295 791.583 117.591C802.499 129.653 808.71 145.242 809.079 161.506L807.978 208.286C812.733 209.443 816.46 213.151 817.635 217.906C819.067 223.635 817.635 231.474 812.623 242.563C812.623 242.912 812.274 242.912 812.274 243.279L791.913 276.858C787.287 284.422 782.513 292.17 777.152 299.294C770.782 307.794 765.549 306.27 770.984 314.422C809.961 367.994 924.523 334.176 924.523 440.734H743.261C743.261 368.16 710.526 337.114 669.493 318.993C670.796 317.543 672.027 316.019 673.202 314.422C677.681 307.812 676.488 308.326 671.457 302.947ZM129.342 557.867V594.567C129.342 603.417 132.518 611.146 138.999 617.847C145.461 624.42 153.301 627.724 162.627 627.724H213.152C215.87 639.309 219.284 650.545 223.47 661.322C227.693 672.228 232.448 682.784 237.772 693.01L198.483 732.171C191.911 738.431 188.496 746.051 188.496 755.23C188.496 764.318 191.911 772.158 198.483 778.859L247.099 828.025C253.8 834.267 261.639 837.352 270.746 837.352C279.797 837.352 287.746 834.267 294.338 828.025L330.34 791.472C339.979 797.696 350.223 803.148 360.872 808.032C371.539 812.915 382.444 817.12 393.46 820.755V875.943C393.46 885.251 396.636 893.072 403.117 899.553C409.579 906.034 417.437 909.229 426.727 909.229H495.997C504.864 909.229 512.575 906.034 519.295 899.553C525.868 893.072 529.154 885.251 529.154 875.943V825.418C540.739 822.701 551.975 819.286 562.752 815.082C573.657 810.878 584.232 806.104 594.44 800.762L633.619 840.069C639.879 846.66 647.59 850.075 656.898 850.075C666.317 850.075 674.046 846.66 680.288 840.069L729.473 791.472C735.715 784.752 738.781 776.913 738.781 767.843C738.781 758.755 735.715 750.824 729.473 744.215L692.901 708.212C699.143 698.592 704.596 688.365 709.48 677.68C714.345 667.013 718.568 656.108 722.203 645.092H777.391C786.699 645.092 794.52 641.898 800.983 635.435C807.464 628.973 810.64 621.133 810.64 611.807V557.867H672.945C673.128 561.41 673.22 564.99 673.22 568.571C673.22 624.695 650.454 675.514 613.699 712.288C576.925 749.062 526.106 771.809 470 771.809C413.875 771.809 363.038 749.062 326.283 712.288C289.509 675.514 266.762 624.695 266.762 568.571C266.762 564.972 266.835 561.41 267.037 557.867H129.342ZM628.056 557.867C628.295 561.41 628.423 564.972 628.423 568.571C628.423 656.108 557.482 727.012 470.018 727.012C382.481 727.012 311.577 656.053 311.577 568.571C311.577 564.972 311.724 561.392 311.944 557.867H628.056ZM9.73047 471.688H930.27C935.63 471.688 940 476.168 940 481.437V517.862C940 523.149 935.539 527.592 930.27 527.592H9.73047C4.47969 527.592 0 523.223 0 517.862V481.437C0 476.076 4.38789 471.688 9.73047 471.688ZM413.986 287.617C401.226 276.271 385.216 266.485 383.05 242.894L381.673 242.93C378.515 242.894 375.468 242.159 372.604 240.525C368.05 237.918 364.819 233.457 362.653 228.426C358.063 217.87 354.428 190.074 365.994 182.124L363.828 180.692L363.571 177.608C363.13 172.026 363.02 165.252 362.91 158.147C362.487 132.003 361.955 100.351 340.952 93.999L331.938 91.2635L337.868 83.9197C354.85 62.9533 372.585 44.5939 390.467 30.5123C410.718 14.5947 431.28 3.98299 451.402 0.916973C472.093 -2.22248 492.141 2.5326 510.648 17.4955C516.119 21.9201 521.425 27.226 526.547 33.4498C546.302 35.3592 562.439 45.9892 573.969 61.1724C580.854 70.242 586.086 80.9639 589.409 92.3467C592.732 103.711 594.183 115.792 593.559 127.688C592.439 148.985 584.654 169.787 568.957 184.97C571.711 185.062 574.318 185.704 576.613 186.934C585.37 191.616 585.664 201.787 583.351 210.324C581.093 217.466 578.192 225.746 575.456 232.704C572.152 242.067 567.305 243.83 557.941 242.82C557.464 265.751 540.72 275.133 526.4 288.498C561.393 353.894 709.884 310.768 709.884 440.734H230.116C230.116 310.768 375.174 355.62 414.206 287.672L413.986 287.617ZM172.743 297.953C170.761 295.824 168.888 293.529 167.18 291.142C163.086 285.506 159.231 279.631 155.522 273.719L137.016 244.271C129.984 234.026 126.294 224.663 126.294 217.264C126.294 209.847 130.498 200.19 138.852 198.042C138.191 186.953 137.75 175.68 137.75 164.536C137.75 157.945 137.879 151.28 138.136 144.744C138.485 140.613 139.237 136.519 140.357 132.535C145.48 115.773 156.716 101.508 171.807 92.5853C177.156 89.2085 182.879 86.4667 188.863 84.4154C199.621 80.358 194.426 63.9447 206.286 63.6877C233.954 62.99 279.466 86.6736 297.22 105.896C308.532 118.399 314.97 134.553 315.359 151.409L314.221 199.896C316.637 200.485 318.847 201.723 320.61 203.477C322.374 205.231 323.624 207.433 324.227 209.847C325.695 215.795 324.227 223.91 319.031 235.385C319.031 235.77 318.664 235.77 318.664 236.137L297.569 270.928C292.777 278.768 287.838 286.809 282.275 294.171C275.684 302.984 270.25 301.405 275.886 309.85C277.227 311.686 278.659 313.43 280.164 315.083C234.578 332.432 196.739 361.862 196.739 440.734H15.477C15.477 330.266 134.207 365.351 174.561 309.85C179.206 303.021 177.976 303.535 172.743 297.953Z" fill="white"/>
</g>
<defs>
<clipPath id="clip0_22_70600">
<rect width="940" height="909.23" fill="white"/>
</clipPath>
</defs>
</svg>
