<svg width="1863" height="1348" viewBox="0 0 1863 1348" fill="none" xmlns="http://www.w3.org/2000/svg">
<path d="M714.75 429.306L709.655 510.62L792.622 591.934L911.185 471.65L826.497 388.683L738.436 398.872C724.938 402.246 714.75 412.368 714.75 429.306Z" fill="white"/>
<path d="M1050.13 612.254L1121.25 544.503L1117.88 459.816C1117.88 444.598 1107.69 432.689 1092.47 431.035L1006.06 419.192L933.22 490.317L813.002 613.974L735.062 690.193L802.813 702.036C831.593 707.131 850.251 730.816 850.251 759.597V813.783L928.191 737.564L1050.13 612.254Z" fill="white"/>
<path d="M1146.66 459.813L1148.38 517.374L1182.25 485.22C1243.26 425.938 1334.69 415.748 1407.54 453.065L1507.45 454.785C1522.66 454.785 1534.57 444.597 1537.95 431.1L1553.16 349.786C1414.29 229.503 1199.2 234.597 1065.35 365.004L1033.19 395.505L1097.57 403.974C1124.63 407.282 1145.01 429.312 1146.66 459.813Z" fill="white"/>
<path d="M357.417 451.343L455.668 453.064C484.448 437.846 516.67 429.378 548.825 429.378C597.916 429.378 645.355 448.036 682.604 483.565L684.324 485.285L687.699 427.724C689.419 398.944 709.731 376.912 738.511 373.538L802.887 366.789L801.167 365.069C669.041 236.317 459.046 229.569 318.447 346.411L330.29 427.724C330.29 441.155 342.133 451.343 357.417 451.343Z" fill="white"/>
<path d="M797.794 727.442L711.386 712.159L682.605 740.939C618.229 803.594 519.978 812.063 447.207 766.345L442.113 820.532C440.393 849.312 418.427 871.345 389.579 873.065L318.455 878.16C384.485 934.067 467.519 961.127 548.84 961.127C640.275 961.127 731.782 927.252 801.175 859.501L823.208 837.469V756.155C823.208 742.658 813.012 730.816 797.794 727.442Z" fill="white"/>
<path d="M1185.63 744.379C1183.91 742.659 1182.25 742.659 1180.53 741.005L1068.72 632.632L950.156 752.916L1061.97 863.009C1063.69 864.73 1065.35 864.73 1065.35 866.384L1072.09 802.008C1075.47 773.227 1097.5 751.195 1126.28 751.195L1185.63 744.379Z" fill="white"/>
<path d="M1460 796.838L1453.25 734.183L1448.16 739.277C1387.16 800.279 1292.35 808.748 1219.5 769.778L1128.07 774.873C1112.85 774.873 1102.66 786.716 1100.94 802L1092.47 886.688C1156.85 937.5 1236.44 962.907 1314.39 962.907C1405.82 962.907 1497.33 929.031 1566.72 861.281C1570.1 857.907 1571.82 856.187 1573.47 852.812L1514.19 849.372C1485.41 847.652 1463.38 825.686 1460 796.838Z" fill="white"/>
<path d="M1575.19 371.755L1563.35 434.41C1558.25 463.19 1534.57 481.849 1505.79 481.849L1446.51 480.128C1448.23 481.849 1448.23 481.849 1449.88 483.503C1485.48 517.378 1504.07 563.096 1504.07 612.255C1504.07 644.409 1495.6 674.911 1480.38 702.038L1488.85 795.194C1490.57 810.412 1500.69 820.601 1515.98 822.321L1597.29 827.416C1644.73 766.414 1671.79 691.915 1671.79 613.969C1671.72 522.467 1637.85 437.794 1575.19 371.755Z" fill="white"/>
<path d="M414.971 818.87L421.72 746.025C419.999 744.305 416.625 742.65 414.971 740.93C379.375 707.055 360.784 661.337 360.784 612.178C360.784 563.086 379.443 519.021 414.971 483.425L418.345 480.051L355.69 480.117C326.91 480.117 303.156 459.806 299.783 431.025L291.314 368.37C226.938 434.399 189.688 520.808 189.688 612.237C189.688 703.666 225.284 788.353 287.94 854.461L386.191 845.992C401.408 844.272 413.252 834.154 414.971 818.87Z" fill="white"/>
</svg>
