<svg width="1684" height="966" viewBox="0 0 1684 966" fill="none" xmlns="http://www.w3.org/2000/svg">
<g clip-path="url(#clip0_22_69889)">
<path fill-rule="evenodd" clip-rule="evenodd" d="M214.682 0H1461.4C1469.27 0.0360355 1476.81 3.1798 1482.38 8.74735C1487.95 14.3149 1491.09 21.8558 1491.13 29.7294V867.77C1491.1 874.357 1488.89 880.749 1484.86 885.953C1480.82 891.156 1475.17 894.878 1468.8 896.54H1649.09C1658.3 896.649 1667.08 900.4 1673.53 906.974C1679.97 913.547 1683.55 922.407 1683.48 931.613C1683.44 940.818 1679.76 949.634 1673.24 956.13C1666.72 962.627 1657.89 966.274 1648.68 966.274H34.7985C25.593 966.274 16.7626 962.627 10.2405 956.13C3.71849 949.634 0.0362419 940.818 0 931.613C0 927.043 0.900089 922.518 2.64888 918.296C4.39766 914.074 6.9609 910.238 10.1922 907.006C13.4236 903.775 17.2597 901.212 21.4817 899.463C25.7036 897.714 30.2287 896.814 34.7985 896.814H207.284C200.91 895.152 195.264 891.43 191.225 886.227C187.187 881.023 184.981 874.631 184.952 868.044V29.7294C184.989 21.8558 188.132 14.3149 193.7 8.74735C199.267 3.1798 206.808 0.0360355 214.682 0ZM792.83 909.555H890.512C894.921 909.555 899.152 911.297 902.283 914.402C905.413 917.507 907.19 921.723 907.226 926.132C907.226 930.565 905.465 934.817 902.331 937.951C899.196 941.086 894.945 942.847 890.512 942.847H792.83C788.397 942.847 784.145 941.086 781.011 937.951C777.876 934.817 776.115 930.565 776.115 926.132C776.152 921.723 777.928 917.507 781.059 914.402C784.19 911.297 788.42 909.555 792.83 909.555ZM1139.58 672.953C1137.67 674.41 1135.54 675.565 1133.28 676.378C1130.98 677.142 1128.57 677.512 1126.16 677.474C1123.42 677.373 1120.73 676.769 1118.21 675.693C1115.58 674.685 1113.17 673.198 1111.08 671.309L1057.65 615.001L1032.17 662.404C1030.18 666.209 1027.8 669.791 1025.05 673.09C1022.56 676.169 1019.65 678.889 1016.42 681.173C1013.57 683.562 1010.22 685.267 1006.62 686.156C1003.01 687.045 999.252 687.094 995.625 686.3C991.998 685.506 988.602 683.889 985.698 681.575C982.795 679.261 980.461 676.311 978.878 672.953C977.224 670.21 975.934 667.262 975.042 664.185C949.56 571.846 911.747 478.41 885.854 385.934C885.068 383.19 885.036 380.285 885.76 377.524C886.485 374.763 887.94 372.248 889.973 370.243C892.005 368.239 894.54 366.819 897.311 366.133C900.082 365.446 902.986 365.519 905.719 366.343C989.016 391.277 1095.19 439.091 1179.72 471.286C1205.75 481.288 1207.12 505.537 1185.75 521.703C1182.29 524.272 1178.57 526.476 1174.65 528.279C1158.49 535.266 1142.05 543.623 1125.88 551.021L1178.22 607.329C1180.1 609.283 1181.55 611.619 1182.46 614.179C1183.41 616.621 1183.83 619.236 1183.7 621.851C1183.38 626.99 1181.24 631.847 1177.67 635.552C1165.52 648.315 1152.67 660.39 1139.17 671.72L1139.58 672.953ZM1125.88 651.855L1157.8 621.714C1146.43 609.658 1097.8 562.393 1093.14 551.843C1091.83 548.916 1091.74 545.592 1092.86 542.592C1093.99 539.593 1096.26 537.158 1099.17 535.814C1118.76 527.594 1144.1 515.812 1163.01 505.948C1165.36 504.871 1167.6 503.588 1169.72 502.112C1171.26 500.927 1172.68 499.597 1173.97 498.139L1174.93 496.632L1173.42 495.536L1169.72 493.892L914.624 395.524L998.332 656.513C998.68 657.847 999.186 659.135 999.839 660.349L1000.8 661.856L1002.31 661.034C1003.92 659.885 1005.35 658.499 1006.55 656.924C1008.09 654.94 1009.47 652.832 1010.66 650.622C1021.07 631.168 1033.54 604.452 1045.19 586.779L1046.56 585.272C1047.69 584.137 1049.03 583.236 1050.52 582.622C1052 582.008 1053.58 581.691 1055.19 581.691C1056.79 581.691 1058.38 582.008 1059.86 582.622C1061.34 583.236 1062.69 584.137 1063.82 585.272L1126.57 651.307L1125.88 651.855ZM366.206 180.157H602.808C607.892 180.175 612.922 181.203 617.606 183.181C622.289 185.16 626.533 188.05 630.089 191.683C633.646 195.316 636.445 199.62 638.323 204.344C640.202 209.069 641.122 214.12 641.032 219.203V369.905C640.818 379.925 636.705 389.466 629.567 396.502C622.43 403.537 612.83 407.511 602.808 407.58H366.206C356.043 407.544 346.307 403.491 339.121 396.305C331.935 389.119 327.882 379.383 327.845 369.22V219.203C327.882 209.04 331.935 199.304 339.121 192.118C346.307 184.932 356.043 180.879 366.206 180.842V180.157ZM720.082 180.157H956.684C966.847 180.194 976.583 184.247 983.769 191.433C990.955 198.619 995.008 208.355 995.044 218.518V322.913C970.658 313.871 947.231 305.788 925.584 299.349H924.214C909.377 295.246 893.704 295.246 878.867 299.349C864.488 303.236 851.364 310.789 840.78 321.269C832.232 329.903 825.562 340.211 821.189 351.547C820.224 353.916 819.401 356.341 818.723 358.808C814.676 373.699 814.676 389.401 818.723 404.292L819.682 407.718H720.082C710.037 407.648 700.417 403.654 693.275 396.59C686.134 389.525 682.037 379.949 681.858 369.905V219.203C681.858 209.053 685.881 199.316 693.045 192.126C700.21 184.936 709.932 180.879 720.082 180.842V180.157ZM1073.96 180.157H1310.56C1320.72 180.194 1330.46 184.247 1337.64 191.433C1344.83 198.619 1348.88 208.355 1348.92 218.518V369.905C1348.88 380.068 1344.83 389.804 1337.64 396.99C1330.46 404.176 1320.72 408.229 1310.56 408.265H1208.08L1203.97 406.621C1177.67 396.346 1149.17 384.564 1118.76 372.371C1091.36 361.137 1063.96 349.629 1035.87 338.943V219.203C1035.91 209.064 1039.94 199.348 1047.1 192.166C1054.25 184.984 1063.96 180.915 1074.09 180.842L1073.96 180.157ZM505.811 625.687C492.933 625.687 492.933 578.285 505.811 578.285H875.716C881.196 594.314 886.539 610.206 891.471 625.687H505.811ZM1242.61 578.285H1345.5C1358.24 578.285 1358.24 625.687 1345.5 625.687H1253.57V624.18C1253.78 618.682 1253.46 613.176 1252.61 607.74C1252.61 605.411 1251.79 603.082 1251.1 600.616C1250.4 597.08 1249.44 593.6 1248.22 590.204C1246.72 586.067 1244.84 582.077 1242.61 578.285ZM340.587 625.687C327.982 625.687 327.982 578.285 340.587 578.285H460.463C473.204 578.285 473.204 625.687 460.463 625.687H340.587ZM336.477 526.498C323.735 526.498 323.735 478.958 336.477 478.958H456.353C469.094 478.958 469.094 526.498 456.353 526.498H336.477ZM505.811 526.498C492.933 526.498 492.933 478.958 505.811 478.958H841.602C846.808 494.988 852.151 510.743 857.631 526.498H505.811ZM1268.23 479.506H1345.5C1358.24 479.506 1358.24 527.046 1345.5 527.046H1264.94C1269.48 513.85 1270.88 499.779 1269.05 485.946C1269.05 484.028 1269.05 482.109 1268.23 480.191V479.506ZM1444 123.302H235.78V852.152H1444V123.302ZM382.509 47.9506C386.059 47.9506 389.529 49.0032 392.48 50.9753C395.431 52.9474 397.732 55.7503 399.09 59.0298C400.449 62.3092 400.804 65.9178 400.112 69.3992C399.419 72.8806 397.71 76.0785 395.2 78.5885C392.69 81.0985 389.492 82.8078 386.01 83.5003C382.529 84.1928 378.92 83.8374 375.641 82.479C372.362 81.1206 369.559 78.8203 367.587 75.8688C365.614 72.9174 364.562 69.4475 364.562 65.8979C364.562 61.138 366.453 56.573 369.819 53.2073C373.184 49.8415 377.749 47.9506 382.509 47.9506ZM319.899 47.9506C323.424 48.0583 326.838 49.2017 329.717 51.2381C332.595 53.2744 334.81 56.1136 336.085 59.401C337.359 62.6884 337.637 66.2785 336.884 69.7231C336.131 73.1677 334.38 76.3141 331.85 78.7695C329.319 81.225 326.122 82.8807 322.656 83.5299C319.19 84.1791 315.61 83.7931 312.363 82.4201C309.115 81.0471 306.344 78.7479 304.395 75.8095C302.446 72.8712 301.406 69.4238 301.404 65.8979C301.403 63.4942 301.885 61.1148 302.821 58.9008C303.757 56.6868 305.128 54.6834 306.853 53.0095C308.578 51.3356 310.622 50.0253 312.863 49.1562C315.104 48.2872 317.497 47.8773 319.899 47.9506ZM257.152 47.9506C260.702 47.9506 264.172 49.0032 267.123 50.9753C270.075 52.9474 272.375 55.7503 273.734 59.0298C275.092 62.3092 275.447 65.9178 274.755 69.3992C274.062 72.8806 272.353 76.0785 269.843 78.5885C267.333 81.0985 264.135 82.8078 260.654 83.5003C257.172 84.1928 253.564 83.8374 250.284 82.479C247.005 81.1206 244.202 78.8203 242.23 75.8688C240.258 72.9174 239.205 69.4475 239.205 65.8979C239.205 61.138 241.096 56.573 244.462 53.2073C247.828 49.8415 252.393 47.9506 257.152 47.9506Z" fill="white"/>
</g>
<defs>
<clipPath id="clip0_22_69889">
<rect width="1683.48" height="966" fill="white"/>
</clipPath>
</defs>
</svg>
