<svg width="870" height="913" viewBox="0 0 870 913" fill="none" xmlns="http://www.w3.org/2000/svg">
<path fill-rule="evenodd" clip-rule="evenodd" d="M86.1967 830.455C82.273 830.455 79.0908 827.273 79.0908 823.349C79.0908 819.394 82.273 816.212 86.1967 816.212H123.857V796.038C123.857 792.114 127.04 788.932 130.963 788.932C134.918 788.932 138.1 792.114 138.1 796.038V816.212H161.827V796.038C161.827 792.114 165.009 788.932 168.933 788.932C172.857 788.932 176.07 792.114 176.07 796.038V816.212H199.797V796.038C199.797 792.114 202.979 788.932 206.903 788.932C210.827 788.932 214.009 792.114 214.009 796.038V816.212H237.736V796.038C237.736 792.114 240.949 788.932 244.873 788.932C248.796 788.932 251.978 792.114 251.978 796.038V816.212H275.706V796.038C275.706 792.114 278.888 788.932 282.842 788.932C286.766 788.932 289.948 792.114 289.948 796.038V816.212H313.676V796.038C313.676 792.114 316.858 788.932 320.781 788.932C324.736 788.932 327.918 792.114 327.918 796.038V816.212H351.645V796.038C351.645 792.114 354.828 788.932 358.751 788.932C362.675 788.932 365.888 792.114 365.888 796.038V816.212H389.615V796.038C389.615 792.114 392.797 788.932 396.721 788.932C400.645 788.932 403.827 792.114 403.827 796.038V816.212H427.554V796.038C427.554 792.114 430.767 788.932 434.691 788.932C438.614 788.932 441.797 792.114 441.797 796.038V816.212H465.524V796.038C465.524 792.114 468.706 788.932 472.661 788.932C476.584 788.932 479.766 792.114 479.766 796.038V816.212H503.494V796.038C503.494 792.114 506.676 788.932 510.6 788.932C514.554 788.932 517.736 792.114 517.736 796.038V816.212H541.464V796.038C541.464 792.114 544.646 788.932 548.569 788.932C552.493 788.932 555.706 792.114 555.706 796.038V816.212H579.433V796.038C579.433 792.114 582.616 788.932 586.539 788.932C590.463 788.932 593.645 792.114 593.645 796.038V816.212H617.372V796.038C617.372 792.114 620.585 788.932 624.509 788.932C628.433 788.932 631.615 792.114 631.615 796.038V816.212H655.342V796.038C655.342 792.114 658.524 788.932 662.479 788.932C666.402 788.932 669.585 792.114 669.585 796.038V816.212H693.312V796.038C693.312 792.114 696.494 788.932 700.418 788.932C704.372 788.932 707.554 792.114 707.554 796.038V816.212H731.282V796.038C731.282 792.114 734.464 788.932 738.388 788.932C742.311 788.932 745.524 792.114 745.524 796.038V816.212H776.666V785.688H755.874C751.95 785.688 748.768 782.506 748.768 778.582C748.768 774.627 751.95 771.445 755.874 771.445H776.666V747.718H755.874C751.95 747.718 748.768 744.536 748.768 740.612C748.768 736.688 751.95 733.475 755.874 733.475H776.666V709.748H755.874C751.95 709.748 748.768 706.566 748.768 702.642C748.768 698.719 751.95 695.537 755.874 695.537H776.666V671.809H755.874C751.95 671.809 748.768 668.596 748.768 664.673C748.768 660.749 751.95 657.567 755.874 657.567H776.666V633.839H755.874C751.95 633.839 748.768 630.657 748.768 626.703C748.768 622.779 751.95 619.597 755.874 619.597H776.666V595.87H755.874C751.95 595.87 748.768 592.688 748.768 588.764C748.768 584.809 751.95 581.627 755.874 581.627H776.666V557.9H755.874C751.95 557.9 748.768 554.718 748.768 550.794C748.768 546.87 751.95 543.657 755.874 543.657H776.666V519.93H755.874C751.95 519.93 748.768 516.748 748.768 512.824C748.768 508.901 751.95 505.718 755.874 505.718H776.666V481.991H755.874C751.95 481.991 748.768 478.778 748.768 474.854C748.768 470.931 751.95 467.749 755.874 467.749H776.666V444.021H755.874C751.95 444.021 748.768 440.839 748.768 436.885C748.768 432.961 751.95 429.779 755.874 429.779H776.666V406.052H755.874C751.95 406.052 748.768 402.869 748.768 398.946C748.768 394.991 751.95 391.809 755.874 391.809H776.666V368.082H755.874C751.95 368.082 748.768 364.9 748.768 360.976C748.768 357.052 751.95 353.839 755.874 353.839H776.666V330.112H755.874C751.95 330.112 748.768 326.93 748.768 323.006C748.768 319.082 751.95 315.9 755.874 315.9H776.666V292.173H755.874C751.95 292.173 748.768 288.96 748.768 285.036C748.768 281.113 751.95 277.93 755.874 277.93H776.666V254.203H755.874C751.95 254.203 748.768 251.021 748.768 247.066C748.768 243.143 751.95 239.961 755.874 239.961H776.666V216.233H755.874C751.95 216.233 748.768 213.051 748.768 209.127C748.768 205.173 751.95 201.991 755.874 201.991H776.666V178.264H755.874C751.95 178.264 748.768 175.081 748.768 171.158C748.768 167.234 751.95 164.021 755.874 164.021H776.666V125.743C776.666 121.819 779.848 118.637 783.803 118.637C787.727 118.637 790.909 121.819 790.909 125.743V830.458L86.1967 830.455ZM650.123 702.794V747.406C650.123 751.33 653.305 754.512 657.259 754.512C661.183 754.512 664.365 751.33 664.365 747.406V702.794C664.365 698.87 661.183 695.688 657.259 695.688C653.305 695.688 650.123 698.87 650.123 702.794ZM650.123 621.971V666.583C650.123 670.507 653.305 673.689 657.259 673.689C661.183 673.689 664.365 670.507 664.365 666.583V621.971C664.365 618.047 661.183 614.834 657.259 614.834C653.305 614.834 650.123 618.047 650.123 621.971ZM617.93 702.794V747.406C617.93 751.33 621.113 754.512 625.067 754.512C628.991 754.512 632.173 751.33 632.173 747.406V702.794C632.173 698.87 628.991 695.688 625.067 695.688C621.113 695.688 617.93 698.87 617.93 702.794ZM617.93 621.971V666.583C617.93 670.507 621.113 673.689 625.067 673.689C628.991 673.689 632.173 670.507 632.173 666.583V621.971C632.173 618.047 628.991 614.834 625.067 614.834C621.113 614.834 617.93 618.047 617.93 621.971ZM585.676 702.794V747.406C585.676 751.33 588.858 754.512 592.782 754.512C596.706 754.512 599.919 751.33 599.919 747.406V702.794C599.919 698.87 596.706 695.688 592.782 695.688C588.859 695.688 585.676 698.87 585.676 702.794ZM585.676 621.971V666.583C585.676 670.507 588.858 673.689 592.782 673.689C596.706 673.689 599.919 670.507 599.919 666.583V621.971C599.919 618.047 596.706 614.834 592.782 614.834C588.859 614.834 585.676 618.047 585.676 621.971ZM432.936 691.948V710.702C432.936 714.625 436.149 717.838 440.073 717.838C443.996 717.838 447.178 714.625 447.178 710.702V691.948C447.178 688.025 443.996 684.842 440.073 684.842C436.149 684.842 432.936 688.025 432.936 691.948ZM432.936 735.695V754.448C432.936 758.372 436.149 761.554 440.073 761.554C443.996 761.554 447.178 758.372 447.178 754.448V735.541C447.178 731.617 443.996 728.435 440.073 728.435C436.149 728.435 432.936 731.617 432.936 735.541V735.695ZM399.415 691.948V710.702C399.415 714.625 402.597 717.838 406.521 717.838C410.475 717.838 413.657 714.625 413.657 710.702V691.948C413.657 688.025 410.475 684.842 406.521 684.842C402.597 684.842 399.415 688.025 399.415 691.948ZM399.415 735.695V754.448C399.415 758.372 402.597 761.554 406.521 761.554C410.475 761.554 413.657 758.372 413.657 754.448V735.541C413.657 731.617 410.475 728.435 406.521 728.435C402.597 728.435 399.415 731.617 399.415 735.541V735.695ZM365.894 691.948V710.702C365.894 714.625 369.076 717.838 373 717.838C376.923 717.838 380.105 714.625 380.105 710.702V691.948C380.105 688.025 376.923 684.842 373 684.842C369.076 684.842 365.894 688.025 365.894 691.948ZM365.894 735.695V754.448C365.894 758.372 369.076 761.554 373 761.554C376.923 761.554 380.105 758.372 380.105 754.448V735.541C380.105 731.617 376.923 728.435 373 728.435C369.076 728.435 365.894 731.617 365.894 735.541V735.695ZM672.838 486.495C672.838 477.042 680.469 469.41 689.923 469.41H691.097C697.245 469.503 702.961 466.228 705.988 460.853C709.047 455.57 709.047 449.051 705.988 443.767L672.93 386.519L639.842 329.332C636.814 323.895 631.037 320.62 624.827 320.775C618.679 320.682 612.995 323.957 610.029 329.332L577.373 386.519L544.161 443.767C541.102 449.05 541.102 455.569 544.161 460.853C547.189 466.136 552.843 469.41 558.96 469.41H560.226H560.196C564.768 469.379 569.124 471.171 572.338 474.384C575.551 477.567 577.373 481.923 577.373 486.495V571.731C577.373 581.185 585.035 588.816 594.459 588.816H655.847C665.27 588.816 672.9 581.185 672.9 571.731V486.495L672.838 486.495ZM454.317 557.677C454.317 548.224 461.948 540.592 471.403 540.592H472.669C478.787 540.654 484.471 537.379 487.437 532.034C490.527 526.751 490.527 520.233 487.437 514.949L454.38 457.763L421.322 400.514C418.263 395.231 412.64 391.987 406.523 391.987C400.437 391.987 394.783 395.231 391.755 400.514L358.698 457.763L325.64 514.949C322.551 520.232 322.551 526.751 325.64 532.034C328.544 537.287 334.074 540.561 340.099 540.592H341.365C350.788 540.592 358.451 548.223 358.451 557.677V642.914C358.451 652.367 366.082 659.999 375.536 659.999H436.924H436.893C446.347 659.999 453.978 652.368 453.978 642.914V557.677H454.317ZM235.797 628.859H235.766C235.766 624.287 237.62 619.9 240.864 616.686C244.108 613.473 248.526 611.712 253.098 611.774H254.365C260.421 611.681 265.982 608.376 268.979 603.123C271.976 597.84 271.945 591.383 268.917 586.131L235.859 528.944L202.802 471.696C199.743 466.413 194.12 463.169 188.003 463.169C181.917 463.169 176.263 466.413 173.204 471.696L140.147 528.944L107.089 586.131C104 591.414 104 597.933 107.089 603.216C110.086 608.592 115.802 611.867 121.98 611.774H123.154C132.577 611.774 140.24 619.405 140.24 628.859V714.095C140.24 723.549 147.871 731.181 157.325 731.181H218.713H218.682C228.136 731.181 235.767 723.55 235.767 714.095L235.797 628.859Z" fill="white"/>
</svg>
