<svg width="890" height="917" viewBox="0 0 890 917" fill="none" xmlns="http://www.w3.org/2000/svg">
<g clip-path="url(#clip0_22_69882)">
<path fill-rule="evenodd" clip-rule="evenodd" d="M354.581 586.595L328.247 612.855V560.26L354.507 586.595H354.581ZM323.622 349.51L323.174 351.375C334.12 359.832 343.728 369.892 351.672 381.216C531.686 381.216 280.725 381.216 538.176 381.216C546.247 369.791 555.949 359.612 566.973 351.002C566.419 349.788 566.018 348.51 565.779 347.198C565.033 343.691 563.989 339.737 562.87 336.231C561.751 332.725 560.557 329.517 559.438 326.682L558.916 325.638C555.735 318.171 551.89 311.006 547.427 304.227C543.018 297.718 538.024 291.625 532.507 286.024C526.95 280.488 520.88 275.492 514.378 271.104C507.6 266.641 500.434 262.796 492.968 259.615C485.49 256.325 477.689 253.825 469.692 252.155C453.283 248.973 436.416 248.973 420.007 252.155C412.355 253.659 404.861 255.882 397.627 258.794L396.582 259.317C389.116 262.498 381.95 266.343 375.171 270.805C368.67 275.194 362.6 280.19 357.043 285.726C351.526 291.327 346.532 297.419 342.123 303.929C337.66 310.707 333.815 317.873 330.634 325.339C328.939 329.146 327.494 333.058 326.307 337.052C325.103 341.051 324.107 345.11 323.323 349.212L323.622 349.51ZM290.2 333.919C290.797 331.606 291.468 329.293 292.214 326.906C293.781 321.684 295.646 316.611 297.735 311.538C301.859 302.045 306.854 292.954 312.655 284.383C318.279 275.91 324.726 268.014 331.902 260.809C339.107 253.632 347.004 247.185 355.477 241.561C364.048 235.76 373.139 230.765 382.632 226.641L384.124 226.044C393.454 222.151 403.151 219.202 413.069 217.241C434.15 213.06 455.847 213.06 476.928 217.241C487.344 219.295 497.519 222.42 507.291 226.566C516.784 230.691 525.875 235.685 534.446 241.487C542.919 247.11 550.816 253.557 558.021 260.734C565.245 267.908 571.742 275.78 577.417 284.234C583.189 292.823 588.182 301.911 592.337 311.389L592.86 312.881C594.725 317.357 596.291 321.535 597.485 325.414C598.305 327.95 598.977 330.561 599.723 332.874C662.09 311.24 734.752 349.51 782.721 401.806V346.601C782.746 344.515 782.392 342.443 781.677 340.483C780.688 338.384 779.351 336.467 777.723 334.814C776.24 333.209 774.422 331.949 772.398 331.124C770.374 330.299 768.193 329.929 766.01 330.039H713.192C708.939 330.051 704.818 328.561 701.556 325.831C698.294 323.101 696.101 319.308 695.362 315.119C694.169 310.27 692.751 305.271 691.185 300.199C689.618 295.126 687.753 289.68 685.515 283.935V283.04C683.501 277.743 681.412 272.745 679.323 268.12C677.234 263.494 674.549 258.198 671.863 253.199C670.025 249.814 669.323 245.928 669.86 242.114C670.398 238.299 672.146 234.758 674.847 232.012L716.176 189.862C717.717 188.457 718.96 186.758 719.832 184.864C720.62 182.949 721.001 180.891 720.951 178.821C720.999 176.696 720.592 174.585 719.757 172.629C718.817 170.44 717.447 168.461 715.729 166.81L665.149 116.305C663.511 114.605 661.56 113.237 659.404 112.276C657.414 111.479 655.281 111.098 653.138 111.157C650.971 111.106 648.815 111.486 646.797 112.276C644.745 113.2 642.894 114.518 641.351 116.156L603.602 153.457C600.638 156.439 596.718 158.282 592.531 158.664C588.343 159.046 584.155 157.942 580.699 155.546C576.373 152.711 571.673 150.025 566.824 147.414C561.974 144.803 556.528 142.043 551.903 139.954C547.278 137.865 541.459 135.403 536.013 133.314C530.567 131.225 525.643 129.435 519.75 127.495C516.135 126.305 512.986 124.007 510.75 120.928C508.514 117.848 507.304 114.143 507.291 110.337V52.8188C507.333 50.531 506.954 48.2551 506.172 46.1046L505.799 45.284C504.96 43.6429 503.85 42.1549 502.517 40.8825C500.961 39.3101 499.099 38.0748 497.045 37.2533C494.992 36.4319 492.791 36.0421 490.58 36.108H417.769C415.652 36.0705 413.547 36.4507 411.577 37.227C409.47 38.1696 407.549 39.4837 405.907 41.1063C404.414 42.6059 403.224 44.3788 402.401 46.3284V46.8506C401.711 48.7628 401.382 50.7865 401.431 52.8188V105.562C401.426 109.803 399.927 113.906 397.199 117.153C394.471 120.399 390.687 122.582 386.511 123.318C380.767 124.735 375.47 126.152 370.695 127.57C365.921 128.987 359.878 131.151 354.73 133.165H353.761C349.21 134.955 344.286 137.044 338.84 139.432C333.394 141.819 328.62 144.355 323.92 146.892C320.535 148.73 316.649 149.432 312.834 148.894C309.02 148.357 305.479 146.609 302.733 143.908L261.105 102.653C259.669 101.115 257.946 99.8729 256.032 98.9973C254.149 98.1906 252.112 97.8086 250.064 97.8783C247.939 97.8305 245.828 98.2375 243.872 99.0719C241.683 100.012 239.704 101.382 238.053 103.1C220.969 119.364 204.184 137.044 187.473 153.755C185.798 155.369 184.455 157.295 183.519 159.425C182.721 161.415 182.34 163.548 182.4 165.691C182.349 167.834 182.729 169.965 183.519 171.958C184.422 174.044 185.742 175.923 187.399 177.478L224.699 215.227C227.669 218.199 229.503 222.117 229.885 226.301C230.266 230.484 229.171 234.67 226.788 238.13C223.953 242.457 221.268 247.157 218.657 252.006C216.046 256.855 213.285 262.375 211.197 266.926C209.108 271.477 206.646 277.37 204.482 282.816C202.319 288.262 200.678 293.186 198.738 299.079C197.548 302.694 195.25 305.843 192.17 308.079C189.091 310.315 185.385 311.525 181.58 311.538H124.062C121.774 311.496 119.498 311.875 117.347 312.657H116.452C114.857 313.503 113.398 314.584 112.125 315.865C110.583 317.355 109.342 319.128 108.47 321.087C107.681 323.236 107.302 325.513 107.351 327.801V400.09C153.902 350.629 227.907 313.328 290.2 333.919ZM82.583 433.288C75.1689 424.134 71.1612 412.691 71.2435 400.911V328.622C71.1859 321.7 72.4783 314.832 75.0482 308.405C80.1114 295.992 89.754 286.003 101.979 280.504L103.77 279.608C110.236 277.105 117.129 275.889 124.062 276.028H168.823L170.912 270.432C173.224 264.539 175.761 258.571 178.372 252.603C180.983 246.634 184.041 240.592 186.951 235.146L189.338 230.893L161.959 203.44C156.919 198.569 152.91 192.734 150.172 186.281C147.464 179.859 146.069 172.96 146.069 165.99C146.069 159.02 147.464 152.12 150.172 145.698C152.905 139.302 156.858 133.499 161.81 128.614L212.539 77.7358C217.48 72.7253 223.328 68.6999 229.772 65.8741C236.195 63.166 243.094 61.7708 250.064 61.771C256.983 61.7236 263.837 63.1111 270.193 65.8461C276.549 68.5811 282.269 72.6041 286.992 77.6612L319.145 109.292L323.92 107.054C328.993 104.667 334.588 102.354 340.705 99.9672L341.675 99.5941C347.718 97.2069 353.835 95.0434 360.102 93.1784L365.175 91.6864V52.8188C365.135 46.2096 366.35 39.6529 368.756 33.4969V32.3779C371.52 26.0459 375.499 20.3178 380.468 15.5179V15.1449C385.517 10.2959 391.475 6.49295 398 3.95458C404.254 1.31148 410.979 -0.0336833 417.769 0.000686652H490.133C497.07 -0.120627 503.959 1.18037 510.374 3.82346C516.789 6.46654 522.595 10.3957 527.434 15.3687C531.92 19.8235 535.56 25.0559 538.176 30.8112L538.997 32.6017C541.567 39.0295 542.859 45.8965 542.802 52.8188V97.5799L548.397 99.7433C554.29 101.981 560.259 104.518 566.301 107.204C572.344 109.889 578.238 112.873 583.684 115.783L587.936 118.17L615.464 90.7911C620.35 85.7688 626.181 81.7629 632.622 79.004C639.045 76.2957 645.944 74.9004 652.914 74.9004C659.884 74.9004 666.783 76.2957 673.206 79.004C679.619 81.7063 685.427 85.663 690.29 90.6419L741.317 141.744C746.221 146.624 750.146 152.398 752.881 158.753C755.589 165.176 756.984 172.075 756.984 179.045C757.083 186.027 755.721 192.952 752.984 199.376C750.247 205.8 746.197 211.581 741.093 216.346L709.388 248.499L711.775 253.498C714.386 259.242 716.773 264.912 719.235 270.582V271.402C721.473 277.221 723.562 283.413 725.576 289.903L726.994 294.529H765.936C772.883 294.436 779.775 295.764 786.19 298.432C792.605 301.101 798.406 305.053 803.237 310.046V310.419C808.009 315.289 811.829 321.007 814.502 327.279C817.088 333.574 818.407 340.317 818.381 347.123V419.487C818.423 426.408 817.132 433.272 814.576 439.704C814.054 440.898 813.457 442.166 812.86 443.359L814.576 446.12C869.11 541.013 896.191 681.339 888.357 781.828C886.891 811.881 879.938 841.413 867.842 868.963C855.234 894.924 837.106 911.934 812.786 916.41C781.751 922.154 743.033 905.816 696.407 858.369C690.439 852.252 684.172 846.135 677.831 839.794C654.431 818.065 633.01 794.298 613.823 768.773H276.026C256.872 794.417 235.423 818.264 211.943 840.017C205.676 846.209 199.409 852.327 193.516 858.369C146.89 905.816 108.171 922.154 77.137 916.41C52.8168 911.934 34.5394 894.924 22.0063 868.963C9.79802 841.155 2.7939 811.343 1.34156 781.007C-6.79004 676.565 23.0507 527.958 82.583 433.288ZM284.008 495.581V543.773H332.201C386.884 543.773 386.884 626.358 332.201 626.358H283.859V674.55C283.859 729.234 201.274 729.234 201.274 674.55V626.656H153.007C98.3986 626.656 98.3986 544.072 153.007 544.072H201.424V495.581C201.424 440.898 284.008 440.898 284.008 495.581ZM661.195 453.505C666.533 458.834 670.171 465.626 671.648 473.023C673.124 480.42 672.373 488.088 669.49 495.058C666.607 502.028 661.721 507.986 655.45 512.178C649.179 516.37 641.806 518.607 634.264 518.607C626.721 518.607 619.348 516.37 613.077 512.178C606.807 507.986 601.92 502.028 599.037 495.058C596.154 488.088 595.403 480.42 596.88 473.023C598.356 465.626 601.994 458.834 607.332 453.505C610.861 449.955 615.057 447.137 619.679 445.215C624.301 443.292 629.258 442.302 634.264 442.302C639.269 442.302 644.226 443.292 648.848 445.215C653.47 447.137 657.666 449.955 661.195 453.505ZM661.195 619.644C666.533 624.972 670.171 631.765 671.648 639.161C673.124 646.558 672.373 654.227 669.49 661.197C666.607 668.166 661.721 674.124 655.45 678.316C649.179 682.508 641.806 684.746 634.264 684.746C626.721 684.746 619.348 682.508 613.077 678.316C606.807 674.124 601.92 668.166 599.037 661.197C596.154 654.227 595.403 646.558 596.88 639.161C598.356 631.765 601.994 624.972 607.332 619.644C610.861 616.093 615.057 613.276 619.679 611.353C624.301 609.43 629.258 608.441 634.264 608.441C639.269 608.441 644.226 609.43 648.848 611.353C653.47 613.276 657.666 616.093 661.195 619.644ZM752.582 532.956C757.92 538.285 761.558 545.077 763.035 552.474C764.511 559.871 763.761 567.539 760.877 574.509C757.994 581.479 753.108 587.437 746.837 591.629C740.567 595.821 733.194 598.058 725.651 598.058C718.108 598.058 710.735 595.821 704.464 591.629C698.194 587.437 693.308 581.479 690.424 574.509C687.541 567.539 686.79 559.871 688.267 552.474C689.744 545.077 693.381 538.285 698.72 532.956C702.249 529.406 706.445 526.588 711.067 524.666C715.689 522.743 720.645 521.753 725.651 521.753C730.657 521.753 735.613 522.743 740.235 524.666C744.857 526.588 749.053 529.406 752.582 532.956ZM569.733 532.956C575.071 538.285 578.709 545.077 580.186 552.474C581.662 559.871 580.911 567.539 578.028 574.509C575.145 581.479 570.259 587.437 563.988 591.629C557.718 595.821 550.344 598.058 542.802 598.058C535.259 598.058 527.886 595.821 521.615 591.629C515.345 587.437 510.459 581.479 507.575 574.509C504.692 567.539 503.941 559.871 505.418 552.474C506.894 545.077 510.532 538.285 515.87 532.956C519.399 529.406 523.596 526.588 528.218 524.666C532.839 522.743 537.796 521.753 542.802 521.753C547.808 521.753 552.764 522.743 557.386 524.666C562.008 526.588 566.204 529.406 569.733 532.956ZM243.872 475.886L270.207 502.146H217.985L244.245 475.886H243.872ZM133.163 586.595L159.497 612.855V560.26L133.163 586.595ZM243.872 697.229L270.207 670.97H217.985L244.245 697.229H243.872Z" fill="white"/>
</g>
<defs>
<clipPath id="clip0_22_69882">
<rect width="890" height="916.707" fill="white"/>
</clipPath>
</defs>
</svg>
