<svg width="1185" height="1209" viewBox="0 0 1185 1209" fill="none" xmlns="http://www.w3.org/2000/svg">
<g clip-path="url(#clip0_22_69906)">
<path fill-rule="evenodd" clip-rule="evenodd" d="M1072.06 60.1219C1109.22 97.2759 1132.18 148.519 1132.18 205.264C1132.18 262.008 1109.22 313.251 1072.06 350.405C1034.91 387.559 983.664 410.527 927.016 410.527C897.872 410.527 870.175 404.448 845.084 393.543L826.073 429.442C889.862 472.097 931.938 544.764 931.938 627.178C931.938 696.758 902.021 759.389 854.348 802.912L873.939 828.003C904.82 809.474 940.912 798.762 979.514 798.762C1036.16 798.762 1087.5 821.73 1124.56 858.884C1161.71 896.038 1184.68 947.282 1184.68 1004.03C1184.68 1060.77 1161.71 1112.01 1124.56 1149.17C1087.41 1186.32 1036.16 1209.29 979.514 1209.29C922.866 1209.29 871.526 1186.32 834.372 1149.17C797.218 1112.01 774.25 1060.77 774.25 1004.03C774.25 947.282 797.218 896.038 834.372 858.884C835.53 857.726 836.688 856.665 837.846 855.507L818.739 829.74C782.55 852.032 739.895 864.867 694.249 864.867C609.711 864.867 535.403 820.669 493.328 754.178L378.971 813.527C398.85 845.181 410.334 882.528 410.334 922.673C410.334 979.321 387.366 1030.66 350.212 1067.72C313.058 1104.87 261.815 1127.84 205.071 1127.84C148.423 1127.84 97.0829 1104.87 60.0254 1067.72C22.9679 1030.47 0 979.128 0 922.48C0 865.832 22.9679 814.492 60.1219 777.338C97.2759 740.184 148.519 717.217 205.167 717.217C261.815 717.217 313.155 740.184 350.309 777.338L350.598 777.724L473.062 714.128C462.446 687.204 456.656 657.77 456.656 627.082C456.656 582.594 468.912 540.904 490.239 505.294L412.361 444.786C410.431 446.909 408.404 449.032 406.378 451.059C369.224 488.213 317.98 511.181 261.332 511.181C204.685 511.181 153.345 488.213 116.287 451.059C79.1332 413.905 56.1652 362.661 56.1652 305.917C56.1652 249.173 79.1332 197.929 116.287 160.872C153.441 123.718 204.685 100.75 261.332 100.75C317.98 100.75 369.32 123.718 406.378 160.872C443.532 198.026 466.5 249.269 466.5 305.917C466.5 343.457 456.463 378.585 438.899 408.887L516.682 469.298C560.205 420.371 623.608 389.49 694.345 389.49C727.156 389.49 758.327 396.148 786.796 408.115L806.386 371.25C797.701 364.978 789.594 357.933 782.067 350.405C744.913 313.251 721.945 262.008 721.945 205.264C721.945 148.519 744.913 97.2759 782.067 60.1219C819.028 22.9679 870.368 0 927.016 0C983.664 0 1035 22.9679 1072.06 60.1219ZM723.296 685.563C729.569 691.836 733.429 700.425 733.429 709.979C733.429 719.436 729.569 728.121 723.296 734.394C717.023 740.667 708.435 744.527 698.977 744.527C689.423 744.527 680.835 740.667 674.562 734.394C668.289 728.121 664.429 719.533 664.429 709.979C664.429 700.521 668.289 691.836 674.562 685.563C680.835 679.291 689.423 675.43 698.977 675.43C708.338 675.43 717.023 679.291 723.296 685.563ZM765.565 535.403C786.603 545.15 807.448 559.433 827.81 578.637C831.091 581.725 832.732 585.778 832.925 589.928C833.021 594.078 831.574 598.227 828.582 601.508L828.196 601.894C825.204 604.886 821.248 606.43 817.291 606.527C813.141 606.623 808.992 605.176 805.807 602.184L805.518 601.894C788.147 585.585 770.487 573.329 752.923 565.126C735.07 556.827 717.217 552.581 699.556 552.291C681.607 552.002 663.657 555.766 645.707 563.389C627.661 571.11 609.711 582.787 592.148 598.324C591.858 598.613 591.569 598.903 591.183 599.096C587.901 601.701 583.945 602.859 580.181 602.57C576.224 602.377 572.268 600.64 569.373 597.455C569.083 597.166 568.794 596.876 568.601 596.49C565.995 593.306 564.837 589.252 565.126 585.392C565.416 581.243 567.25 577.286 570.531 574.294C591.086 556.055 612.317 542.352 634.03 533.184C655.744 524.016 677.843 519.577 700.135 519.963C721.945 520.349 743.852 525.367 765.565 535.403ZM739.316 602.763C752.151 607.685 764.793 615.115 776.952 625.055L777.338 625.345C780.62 628.144 782.55 632.004 782.936 636.057C783.322 640.013 782.26 644.26 779.558 647.637L779.172 648.12C776.373 651.401 772.513 653.331 768.46 653.814C764.407 654.2 760.064 653.041 756.59 650.243C747.133 642.523 737.579 636.829 727.928 633.065C718.278 629.302 708.531 627.371 698.881 627.468C689.23 627.468 679.387 629.495 669.737 633.355C659.893 637.215 650.146 643.102 640.689 650.725C637.215 653.524 632.969 654.682 628.819 654.296C624.766 653.91 620.809 651.883 617.914 648.409C615.115 644.935 613.957 640.689 614.343 636.539V636.25C614.826 632.197 616.756 628.433 620.134 625.634C632.39 615.695 645.128 608.167 658.253 603.053C671.474 597.938 684.984 595.236 698.688 595.236C712.584 595.139 726.095 597.648 739.316 602.763ZM183.647 280.247H198.605V259.595C198.605 242.514 205.553 227.074 216.844 215.879C228.039 204.685 243.576 197.64 260.657 197.64C277.738 197.64 293.179 204.588 304.373 215.879C315.568 227.074 322.612 242.611 322.612 259.595V280.247H334.482C337.088 280.247 339.307 282.467 339.307 285.072V387.077C339.307 389.683 337.088 391.902 334.482 391.902H183.55C180.945 391.902 178.725 389.683 178.725 387.077V285.072C178.725 282.37 180.945 280.247 183.647 280.247ZM222.634 280.247H298.39V259.209C298.39 248.787 294.144 239.33 287.292 232.478C280.44 225.626 270.886 221.38 260.56 221.38C250.138 221.38 240.681 225.626 233.829 232.478C226.977 239.33 222.731 248.883 222.731 259.209V280.247H222.634ZM205.167 816.712L93.8982 925.761L121.016 940.044L204.492 852.515L289.319 940.044L316.436 925.761L205.167 816.712ZM126.999 951.335L205.36 872.974L283.432 951.335V1028.15H226.398H183.55H126.999V951.335ZM197.35 976.522L187.024 1003.54H223.213L213.659 976.136C219.739 973.048 223.889 966.775 223.889 959.345C223.889 948.922 215.397 940.526 205.071 940.526C194.648 940.526 186.252 949.019 186.252 959.345C186.445 966.969 190.981 973.531 197.35 976.522ZM1043.5 978.452C1041.66 979.321 1039.83 980.382 1038 981.444C1032.49 984.629 1027.09 988.585 1021.49 993.121L1009.62 979.61C1013.68 975.847 1018.12 972.373 1022.84 969.285C1026.61 966.872 1030.47 964.652 1034.52 962.819C1036.16 962.047 1037.71 961.275 1039.35 960.599C1031.53 946.799 1020.34 936.859 1007.6 930.78C994.955 924.7 980.672 922.384 966.872 923.638C953.168 924.989 939.754 930.008 928.656 938.596C915.918 948.536 906.171 963.301 902.407 982.892L901.249 989.068L895.17 990.129C889.186 991.191 883.879 992.639 879.15 994.472C874.614 996.209 870.561 998.429 866.99 1000.94C864.192 1002.96 861.683 1005.28 859.656 1007.79C853.19 1015.51 850.199 1025.16 850.295 1034.91C850.392 1044.85 853.576 1054.88 859.56 1063.09C861.779 1066.17 864.385 1068.97 867.28 1071.39C870.272 1073.89 873.649 1075.92 877.413 1077.47C881.177 1079.01 885.23 1080.07 889.862 1080.75H1067.14C1075.82 1078.62 1083.35 1075.82 1089.82 1072.25C1096.28 1068.68 1101.49 1064.24 1105.45 1059.03C1111.53 1050.93 1114.62 1039.35 1114.72 1027.57C1114.91 1015.22 1111.82 1002.77 1105.93 993.7C1104.29 991.094 1102.36 988.778 1100.43 986.655C1091.55 977.101 1080.36 973.048 1068.78 972.952C1060.48 972.759 1051.8 974.785 1043.5 978.452ZM856.472 197.35C850.971 185.577 847.883 173.321 847.979 160.679C848.076 148.037 851.26 135.009 858.305 121.498C858.305 121.402 858.402 121.305 858.402 121.209C867.569 105.672 880.405 95.2493 894.687 89.4591C906.654 84.5374 919.682 82.8968 932.42 84.0548C945.159 85.2129 957.608 89.266 968.513 95.6353C982.313 103.838 993.7 115.998 999.973 131.342C1003.35 139.641 1005.67 148.905 1005.96 159.038C1006.25 169.171 1004.51 180.076 999.876 191.56L965.135 245.602L892.661 256.025C889.09 245.409 883.396 233.636 876.062 225.143C868.149 216.362 861.586 208.255 856.472 197.35ZM899.898 301.092C896.521 291.828 896.81 286.037 893.915 273.395L970.057 262.104C967.161 275.615 969.767 282.563 967.74 293.179C961.468 326.665 911.479 332.07 899.898 301.092ZM1101.59 881.659C1070.32 850.392 1027.19 831.091 979.417 831.091C931.648 831.091 888.511 850.392 857.244 881.659C825.976 912.926 806.676 956.16 806.676 1003.83C806.676 1051.51 825.976 1094.74 857.244 1126.01C888.511 1157.27 931.745 1176.57 979.417 1176.57C1027.09 1176.57 1070.32 1157.27 1101.59 1126.01C1132.86 1094.74 1152.16 1051.51 1152.16 1003.83C1152.16 956.16 1132.86 912.926 1101.59 881.659ZM1049.19 82.9933C1017.92 51.7261 974.785 32.4253 927.016 32.4253C879.343 32.4253 836.109 51.7261 804.842 82.9933C773.575 114.261 754.274 157.398 754.274 205.167C754.274 252.937 773.575 296.074 804.842 327.341C836.109 358.608 879.246 377.909 927.016 377.909C974.689 377.909 1017.92 358.608 1049.19 327.341C1080.46 296.074 1099.76 252.84 1099.76 205.167C1099.76 157.494 1080.46 114.261 1049.19 82.9933ZM383.41 183.647C352.143 152.38 309.005 133.079 261.236 133.079C213.466 133.079 170.329 152.38 139.062 183.647C107.795 214.914 88.494 258.148 88.494 305.821C88.494 353.494 107.795 396.727 139.062 427.995C170.329 459.262 213.466 478.563 261.236 478.563C308.909 478.563 352.143 459.262 383.41 427.995C414.677 396.727 433.978 353.59 433.978 305.821C434.074 258.148 414.677 214.914 383.41 183.647ZM327.341 800.306C296.074 769.039 252.84 749.738 205.167 749.738C157.494 749.738 114.261 769.039 82.9933 800.306C51.7261 831.574 32.4253 874.711 32.4253 922.48C32.4253 970.153 51.7261 1013.39 82.9933 1044.65C114.261 1075.92 157.398 1095.22 205.167 1095.22C252.84 1095.22 296.074 1075.92 327.341 1044.65C358.608 1013.39 377.909 970.25 377.909 922.48C378.006 874.711 358.608 831.574 327.341 800.306Z" fill="white"/>
</g>
<defs>
<clipPath id="clip0_22_69906">
<rect width="1184.58" height="1209" fill="white"/>
</clipPath>
</defs>
</svg>
