<svg width="800" height="800" viewBox="0 0 800 800" fill="none" xmlns="http://www.w3.org/2000/svg">
<path d="M400.017 100C289.684 100 200.017 189.667 200.017 300C200.017 410.3 289.717 500 400.017 500C510.317 500 600.017 410.3 600.017 300C600.017 189.667 510.317 100 400.017 100Z" fill="white"/>
<path d="M698.75 776.967L583.517 497.134C585.05 493.567 586.684 490.434 588.55 488.567C593.05 484.1 603.617 480.9 613.85 477.8C630.85 472.667 650.15 466.833 659.85 450.033C669.417 433.5 664.883 414.033 660.917 396.866C658.484 386.333 655.95 375.398 657.65 369.066C659.183 363.233 666.917 354.998 673.75 347.733C686.05 334.633 699.983 319.8 699.983 300C699.983 280.2 686.05 265.367 673.75 252.267C666.917 245 659.15 236.767 657.65 230.967C655.917 224.6 658.45 213.667 660.917 203.134C664.884 185.967 669.417 166.502 659.85 149.934C650.15 133.167 630.883 127.334 613.85 122.202C603.617 119.102 593.083 115.934 588.583 111.434C584.083 106.934 580.916 96.3672 577.816 86.1672C572.683 69.1672 566.848 49.8672 550.083 40.2C536.016 32.0672 515.483 34.7672 496.85 39.1C485.85 41.6672 474.883 43.9 469.05 42.3672C463.217 40.8 454.983 33.0672 447.717 26.2344C434.65 13.9 419.817 0 400.017 0C380.25 0 365.417 13.9328 352.317 26.2328C345.017 33.0656 336.784 40.8 330.95 42.3656C325.117 43.8656 314.15 41.6656 303.15 39.0656C284.483 34.7328 264.017 32.0328 249.917 40.1656C233.184 49.8328 227.35 69.0984 222.217 86.1656C219.117 96.3984 215.917 106.933 211.45 111.433C206.95 115.9 196.383 119.1 186.15 122.2C169.15 127.333 149.85 133.167 140.15 149.967C130.583 166.5 135.117 185.967 139.083 203.134C141.516 213.667 144.016 224.602 142.35 230.934C140.817 236.767 133.083 245.002 126.217 252.267C113.917 265.367 100.017 280.2 100.017 300C100.017 319.767 113.95 334.633 126.25 347.733C133.083 355 140.85 363.233 142.35 369.033C144.083 375.4 141.55 386.333 139.083 396.866C135.116 414.033 130.583 433.498 140.15 450.066C149.85 466.833 169.117 472.666 186.15 477.798C196.383 480.898 206.917 484.066 211.417 488.566C213.317 490.466 214.95 493.598 216.484 497.198L101.25 777C98.5828 783.433 100.217 790.833 105.283 795.567C108.45 798.5 112.516 800 116.683 800C119.216 800 121.75 799.433 124.15 798.233L248.817 735.9L340.784 797.2C345.017 800 350.317 800.7 355.152 799.2C360.019 797.633 363.884 793.933 365.619 789.2L402.052 692.1L434.219 788.6C435.886 793.533 439.719 797.4 444.652 799.1C449.552 800.767 454.984 800.1 459.284 797.2L551.252 735.9L675.919 798.233C678.286 799.466 680.819 800 683.352 800C687.484 800 691.552 798.467 694.719 795.533C699.783 790.8 701.417 783.4 698.75 776.967ZM545.85 504.2C542.483 515.3 538.683 527.9 533.35 531C528.85 533.567 516.65 531.267 504.383 528.433C489.683 525 473.35 522 460.45 525.433C446.517 529.166 435.517 539.466 424.883 549.466C416.316 557.498 406.583 566.666 400.016 566.666C393.448 566.666 383.716 557.533 375.116 549.466C364.516 539.498 353.516 529.166 339.583 525.433C335.383 524.3 330.916 523.766 326.016 523.766C315.783 523.766 305.583 526.133 295.683 528.433C283.416 531.266 271.183 533.533 266.683 530.933C261.316 527.833 257.516 515.266 254.15 504.166C249.883 489.998 245.45 475.366 235.05 464.966C224.617 454.566 209.983 450.133 195.817 445.833C184.717 442.466 172.15 438.7 169.017 433.333C166.05 428.166 169.117 414.966 171.584 404.333C174.952 389.8 178.417 374.8 174.584 360.366C170.852 346.466 160.517 335.466 150.552 324.833C142.452 316.266 133.352 306.533 133.352 300C133.352 293.4 142.452 283.667 150.552 275.1C160.519 264.467 170.819 253.5 174.584 239.567C178.417 225.167 174.952 210.134 171.584 195.634C169.117 184.967 166.084 171.802 169.017 166.667C172.15 161.3 184.717 157.5 195.85 154.134C210.017 149.867 224.65 145.434 235.083 135.034C245.483 124.634 249.883 110.002 254.183 95.8672C257.516 84.7672 261.316 72.1672 266.683 69.0672C271.183 66.5344 283.35 68.8 295.616 71.6344C310.283 75.0344 326.616 78.1016 339.548 74.6344C353.481 70.9016 364.481 60.6016 375.116 50.6016C383.683 42.5344 393.416 33.4016 400.016 33.4016C406.583 33.4016 416.316 42.5344 424.916 50.6016C435.516 60.5687 446.516 70.9016 460.448 74.6344C473.381 78.1016 489.716 75.0344 504.348 71.6344C516.648 68.8016 528.916 66.5344 533.348 69.1016C538.716 72.2016 542.516 84.7687 545.881 95.8687C550.148 110.036 554.581 124.669 564.981 135.069C575.381 145.469 590.014 149.902 604.181 154.169C615.248 157.536 627.814 161.336 630.948 166.669C633.916 171.836 630.848 185.036 628.381 195.669C625.014 210.202 621.548 225.202 625.381 239.636C629.114 253.536 639.448 264.536 649.414 275.169C657.481 283.736 666.647 293.469 666.647 300.069C666.647 306.669 657.514 316.369 649.414 324.969C639.447 335.602 629.147 346.569 625.381 360.502C621.548 374.902 625.014 389.934 628.381 404.434C630.848 415.067 633.914 428.267 630.948 433.402C627.816 438.769 615.248 442.569 604.116 445.934C589.948 450.202 575.348 454.634 564.916 465.034C554.517 475.433 550.117 490.067 545.85 504.2Z" fill="white"/>
</svg>
