<svg width="1352" height="1352" viewBox="0 0 1352 1352" fill="none" xmlns="http://www.w3.org/2000/svg">
<path d="M855.27 678.327C859.788 671.477 862.086 661.782 862.086 649.478C862.086 637.192 859.788 627.514 855.287 620.737C850.802 614.028 844.042 610.76 834.618 610.76C825.171 610.76 818.445 614.028 814.051 620.737C809.6 627.514 807.341 637.192 807.341 649.478C807.341 661.782 809.6 671.493 814.051 678.327C818.445 685.12 825.171 688.405 834.618 688.405C844.042 688.405 850.802 685.104 855.27 678.327Z" fill="white"/>
<path d="M1100.5 620.742C1097.59 625.17 1095.7 630.86 1094.69 637.687H1145.93C1145.41 631.108 1144.12 625.17 1141.16 620.742C1136.69 614.033 1130.46 610.326 1121.03 610.326C1111.6 610.326 1104.9 614.016 1100.5 620.742Z" fill="white"/>
<path d="M525.205 620.742C522.293 625.17 520.42 630.86 519.397 637.687H570.628C570.115 631.108 568.825 625.17 565.879 620.742C561.397 614.033 555.164 610.326 545.737 610.326C536.31 610.326 529.601 614.016 525.205 620.742Z" fill="white"/>
<path d="M359.979 680.473C360.932 681.921 361.32 682.484 364.127 684.726C364.127 684.726 370.571 689.813 385.189 688.928C395.463 688.309 404.572 686.348 404.572 686.348V653.692C404.572 653.692 395.375 652.171 385.083 652.03C370.43 651.839 364.251 657.218 364.251 657.218C359.925 660.277 357.843 664.812 357.843 671.133C357.843 675.121 358.566 678.265 359.979 680.473Z" fill="white"/>
<path fill-rule="evenodd" clip-rule="evenodd" d="M729.229 269.404C667.685 269.404 612.039 295.234 572.071 336.88C528.092 279.38 458.729 242.27 380.679 242.27C247.742 242.27 139.962 349.89 139.962 482.65C139.962 516.635 147.042 548.961 159.77 578.25C97.9447 614.388 56.3335 681.932 56.3335 759.294C56.3335 874.738 148.948 968.302 263.189 968.297C277.772 968.297 291.984 966.781 305.701 963.869C337.09 1049.02 418.865 1109.73 514.816 1109.73C606.952 1109.73 686.011 1053.77 719.94 973.953C745.752 986.543 774.741 993.613 805.392 993.613C878.603 993.613 942.389 953.273 975.857 893.571C993.185 897.069 1010.81 898.826 1028.49 898.815C1176.04 898.815 1295.67 778.149 1295.67 629.288C1295.67 480.444 1176.04 359.776 1028.49 359.776C990.019 359.776 953.459 367.986 920.425 382.744C882.417 315.022 811.037 269.404 729.229 269.404ZM787.861 545.886C790.582 546.398 792.666 546.875 794.959 547.581C795.455 547.774 796.852 548.462 796.283 550.091L790.796 565.17C790.334 566.297 790.019 566.984 787.67 566.28C787.084 566.099 786.222 565.857 783.997 565.378C782.391 565.04 780.256 564.798 778.099 564.798C775.259 564.798 772.662 565.147 770.387 565.891C768.161 566.612 766.128 567.868 764.365 569.631C762.579 571.434 760.461 574.065 759.334 577.298C757.092 583.782 756.005 590.616 755.655 592.807L755.537 593.5H778.504C780.431 593.5 781.028 594.384 780.853 595.815L778.172 610.749C777.761 612.918 775.766 612.85 775.766 612.85H752.112L735.922 704.426C734.226 713.884 732.091 722.007 729.601 728.542C727.094 735.161 724.464 739.995 720.278 744.625C716.397 748.895 712.02 752.056 707.006 753.875C702.009 755.672 695.97 756.607 689.368 756.607C686.208 756.607 682.839 756.557 678.845 755.622C675.966 754.934 674.395 754.439 672.276 753.695C671.381 753.363 670.671 752.247 671.167 750.822C671.679 749.391 675.916 737.753 676.501 736.22C677.239 734.367 679.093 735.071 679.093 735.071C680.383 735.618 681.284 735.989 682.98 736.327C684.692 736.677 687.002 736.964 688.731 736.964C691.858 736.964 694.72 736.575 697.187 735.741C700.19 734.739 701.925 733.009 703.756 730.677C705.665 728.238 707.198 724.903 708.769 720.453C710.38 715.935 711.828 709.986 713.079 702.747L729.179 612.85H713.31C711.406 612.85 710.786 611.949 710.977 610.535L713.642 595.584C714.07 593.432 716.047 593.5 716.047 593.5H732.356L733.24 588.644C735.674 574.223 740.53 563.258 747.684 556.054C754.867 548.816 765.108 545.144 778.104 545.144C781.828 545.144 785.106 545.393 787.861 545.886ZM471.984 705.113C473.185 705.113 474.05 704.144 474.05 702.944V549.629C474.05 548.43 473.185 547.458 471.984 547.458H452.935C451.734 547.458 450.887 548.43 450.887 549.629V702.944C450.887 704.144 451.734 705.113 452.935 705.113H471.984ZM236.189 694.731C235.818 694.376 235.203 693.796 235.846 692.117L240.864 678.203C241.658 675.803 243.477 676.597 244.2 677.059C244.786 677.408 245.311 677.752 245.859 678.107C246.598 678.586 247.377 679.087 248.401 679.684C263.178 689.024 276.86 689.114 281.15 689.114C292.202 689.114 299.052 683.256 299.052 675.38V674.958C299.052 666.35 288.534 663.117 276.317 659.359L273.577 658.52C256.787 653.72 238.868 646.831 238.868 625.593V625.17C238.868 605.026 255.11 590.976 278.377 590.976L280.919 590.959C294.583 590.959 307.789 594.931 317.34 600.739C318.205 601.268 319.052 602.254 318.576 603.6C318.134 604.834 313.896 616.236 313.403 617.509C312.502 619.892 310.048 618.303 310.048 618.303C301.68 613.678 288.686 610.039 277.741 610.039C267.89 610.039 261.534 615.267 261.534 622.365V622.804C261.534 631.102 272.397 634.629 284.993 638.724L287.186 639.434C303.905 644.712 321.717 652.025 321.717 672.152V672.575C321.717 694.342 305.934 707.862 280.513 707.862C268.031 707.862 256.095 705.907 243.455 699.198L241.974 698.364C240.092 697.311 238.222 696.269 236.375 694.922L236.189 694.731ZM608.355 694.731C607.989 694.376 607.369 693.796 608.017 692.117L613.031 678.203C613.769 675.927 615.926 676.755 616.383 677.059L617.233 677.606C618.225 678.253 619.171 678.873 620.568 679.684C635.344 689.024 649.028 689.114 653.315 689.114C664.367 689.114 671.234 683.256 671.234 675.38V674.958C671.234 666.356 660.711 663.122 648.504 659.37L645.743 658.52C628.951 653.72 611.031 646.831 611.031 625.593V625.17C611.031 605.026 627.272 590.976 650.543 590.976L653.084 590.959C666.75 590.959 679.955 594.931 689.503 600.739C690.371 601.268 691.221 602.254 690.743 603.6C690.297 604.834 686.061 616.236 685.565 617.509C684.67 619.892 682.214 618.303 682.214 618.303C673.848 613.678 660.852 610.039 649.907 610.039C640.054 610.039 633.699 615.267 633.699 622.365V622.804C633.699 631.097 644.56 634.629 657.145 638.719L659.354 639.434C676.073 644.712 693.886 652.025 693.886 672.152V672.575C693.886 694.342 678.101 707.862 652.678 707.862C640.2 707.862 628.263 705.907 615.622 699.198L614.135 698.359C612.259 697.311 610.389 696.269 608.547 694.922L608.445 694.81L608.355 694.731ZM873.651 608.237C877.972 613.408 881.222 619.622 883.307 626.669C885.385 633.677 886.433 641.355 886.433 649.478C886.433 657.602 885.391 665.28 883.307 672.288C881.222 679.329 877.972 685.549 873.651 690.72C869.325 695.908 863.832 700.06 857.354 703.006C850.859 705.952 843.214 707.457 834.618 707.457C825.999 707.457 818.354 705.952 811.859 703.006C805.381 700.06 799.888 695.908 795.562 690.72C791.219 685.532 787.991 679.312 785.89 672.288C783.822 665.297 782.78 657.618 782.78 649.478C782.78 641.338 783.822 633.677 785.89 626.669C787.991 619.644 791.241 613.431 795.545 608.237C799.888 603.048 805.364 598.88 811.859 595.843C818.338 592.824 825.999 591.292 834.618 591.292C843.214 591.292 850.876 592.824 857.354 595.843C863.849 598.88 869.325 603.048 873.651 608.237ZM1054.86 683.83C1054.86 683.83 1056.86 683.053 1057.56 685.12L1062.77 699.508C1063.44 701.294 1061.91 702.032 1061.91 702.032C1053.9 705.192 1042.74 707.4 1031.86 707.4C1013.46 707.4 999.359 702.088 989.968 691.633C980.594 681.216 975.846 666.987 975.846 649.388C975.846 641.248 977.006 633.553 979.304 626.545C981.614 619.515 985.073 613.301 989.63 608.113C994.182 602.919 999.939 598.756 1006.72 595.736C1013.52 592.7 1021.46 591.179 1030.38 591.179C1036.34 591.179 1041.71 591.551 1046.3 592.261C1051.21 592.999 1057.7 594.745 1060.46 595.821C1060.95 596.018 1062.33 596.705 1061.77 598.311C1060.44 602.108 1059.38 605.014 1058.27 608.073L1056.55 612.828C1055.76 615.014 1054.09 614.293 1054.09 614.293C1047.1 612.084 1040.42 611.076 1031.67 611.076C1021.16 611.076 1013.29 614.591 1008.11 621.441C1002.91 628.325 1000.01 637.367 999.973 649.388C999.939 662.593 1003.22 672.355 1009.09 678.394C1014.93 684.433 1023.09 687.486 1033.36 687.486C1037.54 687.486 1041.45 687.205 1044.99 686.658C1048.49 686.112 1051.77 685.013 1054.86 683.83ZM1156.94 605.859C1159.88 609.003 1164.34 615.87 1166.14 622.664C1170.45 637.8 1168.63 651.005 1168.31 653.298L1168.27 653.613C1168.08 655.45 1166.19 655.483 1166.19 655.483L1094.36 655.416C1094.82 666.322 1097.41 674.057 1102.73 679.318C1107.9 684.456 1116.16 687.74 1127.3 687.757C1142.85 687.791 1150.29 684.94 1155.38 682.991L1156.78 682.461C1156.78 682.461 1158.78 681.735 1159.49 683.695L1164.18 696.849C1165.14 699.074 1164.38 699.852 1163.58 700.291C1159.08 702.781 1148.15 707.406 1127.4 707.473C1117.33 707.496 1108.55 706.048 1101.33 703.254C1094.06 700.454 1087.98 696.427 1083.27 691.289C1078.54 686.185 1075.04 680.028 1072.86 673.031C1070.68 666.097 1069.59 658.379 1069.59 650.098C1069.59 641.963 1070.65 634.246 1072.75 627.17C1074.83 620.055 1078.11 613.786 1082.48 608.524C1086.84 603.246 1092.4 599.009 1099.02 595.9C1105.62 592.796 1113.76 591.292 1122.73 591.292C1130.42 591.292 1137.45 592.953 1143.31 595.46C1147.8 597.404 1152.32 600.88 1156.94 605.859ZM581.647 605.859C584.577 609.003 589.027 615.87 590.824 622.664C595.134 637.744 593.348 650.909 593.027 653.27L592.982 653.613C592.79 655.45 590.897 655.483 590.897 655.483L519.064 655.416C519.524 666.322 522.118 674.057 527.433 679.318C532.606 684.456 540.868 687.74 551.99 687.757C567.564 687.791 575 684.94 580.087 682.991L581.49 682.461C581.49 682.461 583.484 681.735 584.211 683.695L588.886 696.849C589.838 699.074 589.083 699.852 588.289 700.291C583.782 702.781 572.859 707.406 552.113 707.473C542.032 707.496 533.259 706.048 526.037 703.254C518.764 700.454 512.691 696.427 507.977 691.289C503.247 686.185 499.751 680.028 497.561 673.031C495.389 666.097 494.295 658.379 494.295 650.098C494.295 641.963 495.372 634.246 497.454 627.17C499.538 620.055 502.821 613.786 507.182 608.524C511.542 603.246 517.104 599.009 523.724 595.9C530.326 592.796 538.483 591.292 547.433 591.292C555.131 591.292 562.157 592.953 568.02 595.46C572.505 597.404 577.022 600.88 581.647 605.859ZM381.497 633.919C386.017 633.919 389.795 634.043 392.708 634.251C392.708 634.251 398.375 634.764 404.555 635.648V632.606C404.555 623.041 402.56 618.506 398.641 615.504C394.616 612.411 388.649 610.862 380.88 610.862C380.88 610.862 363.404 610.631 349.58 618.151C348.943 618.523 348.396 618.737 348.396 618.737C348.396 618.737 346.683 619.334 346.048 617.571L340.963 603.905C340.186 601.927 341.598 601.043 341.598 601.043C348.06 595.995 363.755 592.959 363.755 592.959C368.945 591.917 377.613 591.173 382.999 591.173C397.351 591.173 408.455 594.514 415.994 601.116C423.568 607.735 427.416 618.416 427.416 632.821L427.452 698.516C427.452 698.516 427.593 700.421 425.809 700.86C424.138 701.316 422.461 701.744 420.777 702.15C418.377 702.696 409.727 704.443 402.683 705.648C395.568 706.865 388.224 707.462 380.862 707.462C373.87 707.462 367.48 706.814 361.848 705.524C356.129 704.234 351.202 702.099 347.213 699.187C343.188 696.274 340.029 692.494 337.839 687.96C335.649 683.436 334.555 677.91 334.555 671.555C334.555 665.308 335.844 659.725 338.387 654.993C340.901 650.301 344.466 646.245 348.802 643.146C353.145 640.042 358.195 637.693 363.808 636.195C369.387 634.691 375.337 633.919 381.497 633.919ZM971.012 594.66C971.491 594.835 972.635 595.612 972.088 597.24C971.418 599.195 967.925 609.031 966.686 612.315C966.229 613.566 965.452 614.416 964.077 614.259C964.077 614.259 959.943 613.29 956.185 613.29C953.571 613.29 949.882 613.622 946.547 614.647C943.279 615.65 940.294 617.436 937.663 619.977C935.049 622.54 932.931 626.106 931.382 630.556C929.793 635.057 928.993 642.223 928.993 649.405V702.933C928.999 703.513 928.768 704.071 928.362 704.476C927.957 704.888 927.404 705.124 926.824 705.124H907.953C906.753 705.124 905.761 704.139 905.761 702.933V595.793C905.761 594.57 906.629 593.601 907.829 593.601H926.238C927.444 593.601 928.306 594.57 928.306 595.793V604.53C931.061 600.84 936.007 597.59 940.451 595.579C944.941 593.567 949.955 592.046 958.974 592.593C963.689 592.897 969.795 594.187 971.012 594.66Z" fill="white"/>
</svg>
