<svg width="1195" height="995" viewBox="0 0 1195 995" fill="none" xmlns="http://www.w3.org/2000/svg">
<g clip-path="url(#clip0_22_69887)">
<path fill-rule="evenodd" clip-rule="evenodd" d="M32.202 11.3559L1152.52 0.31734C1161.05 0.258699 1169.26 3.57899 1175.35 9.55305C1181.45 15.5271 1184.93 23.6695 1185.04 32.2019L1192.35 774.579C1192.41 783.112 1189.09 791.322 1183.12 797.415C1177.14 803.508 1169 806.989 1160.47 807.099L40.1513 818.137C35.9097 818.166 31.7039 817.36 27.774 815.763C23.8441 814.167 20.2671 811.812 17.2473 808.834C14.2274 805.855 11.8238 802.311 10.1737 798.403C8.52365 794.496 7.65937 790.301 7.63026 786.06L0.315533 43.6822C0.307868 35.1823 3.65099 27.022 9.62001 20.9707C15.589 14.9193 23.7028 11.4647 32.202 11.3559ZM136.132 626.565C132.731 626.81 129.315 626.356 126.096 625.231C122.877 624.106 119.923 622.334 117.415 620.023C114.907 617.713 112.899 614.913 111.514 611.797C110.13 608.68 109.398 605.314 109.365 601.904C109.331 598.494 109.996 595.113 111.319 591.97C112.642 588.827 114.594 585.989 117.056 583.629C119.518 581.269 122.437 579.439 125.634 578.251C128.83 577.063 132.236 576.541 135.641 576.72L515.989 572.972C519.39 572.727 522.805 573.181 526.024 574.306C529.244 575.431 532.198 577.203 534.706 579.514C537.214 581.824 539.222 584.624 540.606 587.74C541.991 590.857 542.723 594.224 542.756 597.633C542.79 601.043 542.125 604.424 540.802 607.567C539.479 610.71 537.526 613.549 535.065 615.908C532.603 618.268 529.684 620.098 526.487 621.286C523.291 622.475 519.885 622.996 516.48 622.817L136.132 626.565ZM136.317 498.515C129.971 498.183 123.99 495.444 119.593 490.856C115.196 486.268 112.714 480.177 112.651 473.823C112.589 467.469 114.951 461.33 119.256 456.656C123.562 451.983 129.487 449.127 135.826 448.669L413.108 445.937C419.454 446.269 425.435 449.008 429.832 453.596C434.229 458.184 436.711 464.275 436.774 470.629C436.837 476.983 434.474 483.123 430.169 487.796C425.863 492.469 419.938 495.326 413.6 495.783L136.317 498.515ZM133.614 370.975C130.213 371.22 126.797 370.767 123.578 369.641C120.359 368.516 117.404 366.744 114.897 364.433C112.389 362.123 110.381 359.323 108.996 356.207C107.612 353.09 106.88 349.724 106.846 346.314C106.813 342.904 107.478 339.523 108.801 336.38C110.124 333.237 112.076 330.399 114.538 328.039C117 325.679 119.919 323.849 123.115 322.661C126.311 321.473 129.717 320.951 133.123 321.13L329.419 319.196C335.765 319.528 341.745 322.267 346.142 326.854C350.539 331.442 353.022 337.533 353.084 343.887C353.147 350.242 350.785 356.381 346.479 361.054C342.173 365.728 336.248 368.584 329.91 369.041L133.614 370.975ZM132.354 243.132C128.953 243.377 125.537 242.923 122.318 241.798C119.099 240.673 116.145 238.901 113.637 236.59C111.129 234.28 109.121 231.48 107.736 228.364C106.352 225.247 105.62 221.88 105.587 218.471C105.553 215.061 106.218 211.68 107.541 208.537C108.864 205.394 110.816 202.555 113.278 200.196C115.74 197.836 118.659 196.006 121.856 194.818C125.052 193.629 128.458 193.108 131.863 193.287L245.726 192.165C252.072 192.497 258.053 195.236 262.45 199.823C266.847 204.411 269.329 210.502 269.392 216.857C269.454 223.211 267.092 229.35 262.787 234.023C258.481 238.697 252.555 241.553 246.217 242.01L132.354 243.132ZM1070.04 486.422L1070.66 548.512L943.815 622.078L943.103 549.769L1024.94 517.721L942.491 487.679L941.778 415.369L1070.04 486.422ZM850.587 642.86L796.885 643.389L861.799 381.349L916.079 380.814L851.165 642.854L850.587 642.86ZM758.343 489.493L676.407 521.156L758.955 551.583L759.667 623.892L632.075 552.833L631.464 490.743L758.402 417.176L759.114 489.486L758.343 489.493ZM809.334 116.03L809.683 151.414C809.729 156.093 807.914 160.599 804.638 163.941C801.362 167.282 796.893 169.185 792.213 169.231L763.289 169.516C759.794 181.438 754.718 192.838 748.196 203.413L767.668 222.505C770.986 225.778 772.874 230.231 772.92 234.892C772.966 239.552 771.166 244.042 767.913 247.38L742.043 273.765C738.77 277.083 734.317 278.971 729.656 279.017C724.996 279.063 720.507 277.263 717.169 274.01L695.944 253.199C685.064 259.174 673.434 263.667 661.363 266.557L661.631 293.745C661.652 298.417 659.829 302.908 656.558 306.244C653.287 309.58 648.833 311.491 644.161 311.563L606.85 311.93C602.178 311.951 597.687 310.128 594.351 306.857C591.015 303.586 589.104 299.132 589.032 294.461L588.74 264.765C576.814 261.326 565.411 256.281 554.844 249.768L535.752 269.241C534.136 270.91 532.205 272.241 530.07 273.158C527.936 274.075 525.641 274.559 523.318 274.582C520.995 274.604 518.691 274.166 516.538 273.291C514.386 272.417 512.429 271.124 510.781 269.487L484.396 243.616C481.187 240.343 479.37 235.956 479.325 231.373C479.28 226.79 481.01 222.367 484.153 219.031L504.965 197.903C498.989 186.99 494.497 175.328 491.607 163.226L464.322 163.495C459.642 163.541 455.136 161.726 451.795 158.45C448.454 155.174 446.551 150.704 446.504 146.025L446.248 119.994L30.9022 124.086L36.5212 694.367C36.5968 702.038 39.7166 709.365 45.1943 714.736C50.672 720.107 58.0589 723.081 65.73 723.006L1133.6 712.484C1141.27 712.408 1148.59 709.289 1153.97 703.811C1159.34 698.333 1162.31 690.946 1162.24 683.275L1156.61 112.609L809.334 116.03ZM699.231 117.115L556.637 118.52C555.981 122.604 555.666 126.736 555.698 130.872C557.212 149.124 565.579 166.127 579.115 178.463C592.652 190.8 610.355 197.558 628.67 197.377C646.984 197.197 664.551 190.092 677.842 177.491C691.132 164.889 699.162 147.725 700.317 129.447C700.298 125.313 699.935 121.188 699.231 117.115ZM1101.5 48.2597C1105.31 48.2221 1109.05 49.3162 1112.24 51.4038C1115.44 53.4913 1117.94 56.4785 1119.43 59.9875C1120.93 63.4966 1121.35 67.3699 1120.64 71.1177C1119.93 74.8655 1118.13 78.3194 1115.46 81.0426C1112.79 83.7659 1109.37 85.6363 1105.64 86.4171C1101.91 87.198 1098.02 86.8544 1094.49 85.4296C1090.95 84.0049 1087.91 81.5631 1085.76 78.413C1083.61 75.2628 1082.45 71.5459 1082.41 67.7322C1082.36 62.6181 1084.34 57.6935 1087.92 54.0417C1091.5 50.3899 1096.39 48.31 1101.5 48.2597ZM971.922 49.5364C975.735 49.4988 979.474 50.593 982.666 52.6805C985.858 54.7681 988.359 57.7553 989.854 61.2643C991.348 64.7733 991.768 68.6467 991.061 72.3944C990.353 76.1422 988.551 79.5961 985.881 82.3194C983.211 85.0427 979.793 86.913 976.06 87.6939C972.327 88.4748 968.446 88.1311 964.908 86.7064C961.37 85.2817 958.334 82.8398 956.184 79.6897C954.034 76.5396 952.867 72.8227 952.829 69.0089C952.779 63.8949 954.762 58.9703 958.342 55.3185C961.923 51.6667 966.807 49.5868 971.922 49.5364ZM1036.71 48.898C1040.52 48.8605 1044.26 49.9546 1047.46 52.0422C1050.65 54.1297 1053.15 57.1169 1054.64 60.6259C1056.14 64.135 1056.56 68.0083 1055.85 71.7561C1055.14 75.5038 1053.34 78.9577 1050.67 81.681C1048 84.4043 1044.58 86.2746 1040.85 87.0555C1037.12 87.8364 1033.24 87.4927 1029.7 86.068C1026.16 84.6433 1023.12 82.2015 1020.97 79.0513C1018.82 75.9012 1017.66 72.1843 1017.62 68.3706C1017.57 63.2565 1019.55 58.3319 1023.13 54.6801C1026.71 51.0283 1031.6 48.9484 1036.71 48.898ZM454.68 858.31L746.81 855.432C748.079 905.945 769.351 951.053 826.103 986.074L377.977 990.489C423.063 957.165 455.451 917.024 454.68 858.31Z" fill="white"/>
</g>
<defs>
<clipPath id="clip0_22_69887">
<rect width="1184.78" height="982.493" fill="white" transform="translate(0 11.6732) rotate(-0.564523)"/>
</clipPath>
</defs>
</svg>
